# https://github.com/mikedh/trimesh
v 0.10820500 0.01071880 0.49600400
v 0.10820500 -0.00991386 0.49600400
v 0.10314200 0.04120180 0.49600400
v 0.10322700 0.02063270 0.90850900
v 0.10322700 -0.04088410 0.49600400
v 0.10322700 -0.02063270 0.90850900
v 0.09695670 0.05567010 0.49600400
v 0.09634240 0.03440190 0.91193000
v 0.08774190 0.03611780 0.94462800
v 0.09291070 0.02063270 0.93947400
v 0.10314200 -0.04132890 0.49600400
v 0.09291070 -0.02063270 0.93947400
v 0.09032630 -0.03226240 0.93947400
v 0.09032630 -0.04257880 0.91881600
v 0.09979530 -0.02751730 0.90850900
v 0.08602600 0.07570970 0.49600400
v 0.08602600 0.07570970 0.49902500
v 0.07570970 0.07570970 0.91193000
v 0.08774190 0.04645530 0.92401400
v 0.07742560 0.05677170 0.94462800
v 0.08257310 0.02063270 0.94982600
v 0.08945780 0.01720100 0.94636000
v 0.08950010 -0.06859210 0.49600400
v 0.07570970 -0.07570970 0.90850900
v 0.08945780 -0.02408560 0.94636000
v 0.08774190 -0.03353340 0.94462800
v 0.07742560 -0.05418730 0.94462800
v 0.08000990 -0.05289510 0.93947400
v 0.08000990 -0.06323260 0.91881600
v 0.07570970 0.08602600 0.49600400
v 0.07570970 0.08602600 0.49902500
v 0.03440190 0.09634240 0.91193000
v 0.04645530 0.08774190 0.92401400
v 0.06708800 0.07742560 0.92401400
v 0.06537220 0.07570970 0.93258800
v 0.07570970 0.06537220 0.93258800
v 0.07742560 0.06708800 0.92401400
v 0.05567010 0.09695670 0.49600400
v 0.05677170 0.07742560 0.94462800
v 0.07225680 0.04128660 0.94982600
v 0.08257310 -0.02063270 0.94982600
v 0.08615310 -0.07524370 0.49600400
v 0.07570970 -0.06537220 0.92916700
v 0.06537220 -0.07570970 0.92916700
v 0.05677170 -0.08000990 0.93432100
v 0.06708800 -0.08000990 0.91366200
v 0.06708800 -0.09032630 0.50075700
v 0.07556140 -0.08589890 0.49600400
v 0.08589890 -0.07556140 0.49600400
v 0.07914140 -0.04471830 0.94636000
v 0.07225680 -0.04128660 0.94982600
v 0.07225680 -0.05289510 0.94720500
v 0.06194040 -0.06323260 0.94720500
v 0.05677170 -0.07484120 0.94462800
v 0.02063270 0.10322700 0.90850900
v 0.03611780 0.08774190 0.94462800
v 0.04120180 0.10314200 0.49600400
v 0.04128660 0.07225680 0.94982600
v 0.04128660 -0.08644970 0.93947400
v 0.03611780 -0.09032630 0.93432100
v 0.03097020 -0.09678720 0.91881600
v 0.04645530 -0.09032630 0.91366200
v 0.04645530 -0.10064300 0.50075700
v 0.06867680 -0.08954250 0.49600400
v 0.04128660 -0.07225680 0.94982600
v 0.05160290 -0.07354900 0.94720500
v 0.04645530 -0.08000990 0.94462800
v -0.02063270 0.10322700 0.90850900
v 0.02063270 0.09291070 0.93947400
v 0.01071880 0.10820500 0.49600400
v 0.01720100 0.08945780 0.94636000
v 0.02063270 0.08257310 0.94982600
v 0.02580150 -0.09032630 0.94462800
v 0.02580150 -0.10064300 0.91366200
v 0.04168910 -0.10303600 0.49600400
v 0.02063270 -0.08257310 0.94982600
v 0.03097020 -0.08386530 0.94720500
v -0.02751730 0.09979530 0.90850900
v -0.04257880 0.09032630 0.91881600
v -0.03226240 0.09032630 0.93947400
v -0.02063270 0.09291070 0.93947400
v -0.00991386 0.10820500 0.49600400
v -0.04088410 0.10322700 0.49600400
v -0.04132890 0.10314200 0.49600400
v -0.02408560 0.08945780 0.94636000
v -0.02063270 0.08257310 0.94982600
v 0.02063270 -0.08945780 0.94636000
v 0.02063270 -0.09291070 0.93947400
v 0.02063270 -0.10322700 0.90850900
v 0.02103520 -0.10695500 0.49600400
v -0.02063270 -0.08257310 0.94982600
v -0.07570970 0.07570970 0.90850900
v -0.06323260 0.08000990 0.91881600
v -0.05289510 0.08000990 0.93947400
v -0.05418730 0.07742560 0.94462800
v -0.03353340 0.08774190 0.94462800
v -0.06859210 0.08950010 0.49600400
v -0.04471830 0.07914140 0.94636000
v -0.04128660 0.07225680 0.94982600
v -0.02063270 -0.08945780 0.94636000
v -0.02063270 -0.09291070 0.93947400
v -0.02063270 -0.10322700 0.90850900
v 0.01031630 -0.10820500 0.49600400
v -0.04128660 -0.07225680 0.94982600
v -0.02580150 -0.08774190 0.94720500
v -0.08000990 0.06708800 0.91366200
v -0.08000990 0.05677170 0.93432100
v -0.07570970 0.06537220 0.92916700
v -0.06537220 0.07570970 0.92916700
v -0.07524370 0.08615310 0.49600400
v -0.07556140 0.08589890 0.49600400
v -0.08589890 0.07556140 0.49600400
v -0.09032630 0.06708800 0.50075700
v -0.07484120 0.05677170 0.94462800
v -0.06323260 0.06194040 0.94720500
v -0.05289510 0.07225680 0.94720500
v -0.07225680 0.04128660 0.94982600
v -0.03097020 -0.09032630 0.94076300
v -0.02751730 -0.09979530 0.91193000
v -0.04901850 -0.10000700 0.49600400
v -0.04209150 -0.10282500 0.49600400
v -0.04128660 -0.10314200 0.49600400
v -0.04088410 -0.10322700 0.49600400
v -0.01031630 -0.10820500 0.49600400
v -0.07225680 -0.04128660 0.94982600
v -0.04645530 -0.07742560 0.94720500
v -0.03611780 -0.08774190 0.94205100
v -0.09032630 0.04645530 0.91366200
v -0.09678720 0.03097020 0.91881600
v -0.09032630 0.03611780 0.93432100
v -0.08644970 0.04128660 0.93947400
v -0.08954250 0.06867680 0.49600400
v -0.10064300 0.04645530 0.50075700
v -0.08000990 0.04645530 0.94462800
v -0.07354900 0.05160290 0.94720500
v -0.08386530 0.03097020 0.94720500
v -0.08257310 0.02063270 0.94982600
v -0.03785480 -0.08945780 0.93258800
v -0.06882510 -0.07914140 0.91193000
v -0.07185430 -0.08795370 0.49600400
v -0.07570970 -0.07570970 0.90504300
v -0.08257310 -0.02063270 0.94982600
v -0.07742560 -0.04645530 0.94720500
v -0.05677170 -0.07742560 0.94205100
v -0.10064300 0.02580150 0.91366200
v -0.09032630 0.02580150 0.94462800
v -0.10303600 0.04168910 0.49600400
v -0.08945780 0.02063270 0.94636000
v -0.05848750 -0.07914140 0.93258800
v -0.06708800 -0.07742560 0.92139300
v -0.08795370 -0.07185430 0.49600400
v -0.07742560 -0.06708800 0.92139300
v -0.07914140 -0.06882510 0.91193000
v -0.10000700 -0.04901850 0.49600400
v -0.08945780 -0.02063270 0.94636000
v -0.08774190 -0.02580150 0.94720500
v -0.07742560 -0.05677170 0.94205100
v -0.10322700 0.02063270 0.90850900
v -0.09291070 0.02063270 0.93947400
v -0.10695500 0.02103520 0.49600400
v -0.07914140 -0.05848750 0.93258800
v -0.09979530 -0.02751730 0.91193000
v -0.10282500 -0.04209150 0.49600400
v -0.10322700 -0.02063270 0.90850900
v -0.09291070 -0.02063270 0.93947400
v -0.09032630 -0.03097020 0.94076300
v -0.08774190 -0.03611780 0.94205100
v -0.08945780 -0.03785480 0.93258800
v -0.10820500 0.01031630 0.49600400
v -0.10314200 -0.04128660 0.49600400
v -0.10820500 -0.01031630 0.49600400
v -0.10322700 -0.04088410 0.49600400
v 0.26842900 0.03099280 -0.12390600
v 0.26842900 0.00277927 -0.12390600
v 0.26842900 0.04131620 -0.15489900
v 0.25809100 0.06196280 -0.08272280
v 0.25809100 0.03099280 -0.05172960
v 0.25809100 0.00277927 -0.05172960
v 0.26842900 0.00277927 -0.89817000
v 0.25809100 0.07228610 -0.12390600
v 0.26842900 0.05163950 -0.19622300
v 0.24777800 0.09293270 -0.07239170
v 0.24777800 0.04131620 -0.00007418
v 0.24777800 0.03099280 0.01025690
v 0.24777800 0.00277927 0.01025690
v 0.25809100 0.00277927 -0.92916400
v 0.26842900 0.03099280 -0.89817000
v 0.25809100 0.08260940 -0.16523000
v 0.24777800 0.10325600 -0.11357500
v 0.24777800 0.11357900 -0.18589200
v 0.26842900 0.05163950 -0.85684600
v 0.24087700 0.10668800 -0.06885370
v 0.24259600 0.09808140 -0.05682440
v 0.23228400 0.09808140 -0.00516896
v 0.23744000 0.09293270 -0.02073630
v 0.23744000 0.07228610 0.01025690
v 0.24605900 0.03959990 0.00855864
v 0.23744000 0.03099280 0.05158120
v 0.22712700 0.02066950 0.09290550
v 0.22712700 0.00277927 0.09290550
v 0.25121600 0.00277927 -0.94289100
v 0.25809100 0.04131620 -0.92916400
v 0.26582500 0.04131620 -0.89944400
v 0.26842900 0.04131620 -0.88783900
v 0.25551200 0.05163950 -0.93043700
v 0.24087700 0.11701200 -0.11017800
v 0.24087700 0.12733500 -0.18249600
v 0.24777800 0.11357900 -0.86717700
v 0.25809100 0.08260940 -0.87750800
v 0.23056500 0.12733500 -0.06885370
v 0.23056500 0.10668800 -0.01733980
v 0.20991400 0.12733500 0.02398450
v 0.21163300 0.11875400 0.03601380
v 0.21163300 0.09808140 0.07733820
v 0.22712700 0.08260940 0.04125010
v 0.23572100 0.07056990 0.01888970
v 0.23572100 0.03959990 0.04988300
v 0.23228400 0.04646480 0.05667600
v 0.21163300 0.04646480 0.12899400
v 0.21678900 0.03099280 0.12375700
v 0.11358700 0.01034620 0.48520400
v 0.11358700 0.00277927 0.48520400
v 0.24619000 0.00277927 -0.94543900
v 0.25121600 0.04131620 -0.94289100
v 0.25551200 0.07228610 -0.90977500
v 0.25809100 0.07228610 -0.89817000
v 0.24087700 0.09293270 -0.93256000
v 0.24259600 0.09808140 -0.92647500
v 0.24431500 0.09982360 -0.92222900
v 0.24777800 0.09293270 -0.91883300
v 0.20991400 0.16862800 -0.09984690
v 0.22022600 0.14795600 -0.07918480
v 0.20991400 0.17895200 -0.19282700
v 0.22022600 0.15827900 -0.15150200
v 0.24087700 0.12733500 -0.86378100
v 0.24777800 0.10325600 -0.89817000
v 0.24431500 0.12047000 -0.87057400
v 0.20991400 0.15827900 -0.05852260
v 0.22022600 0.13763200 -0.04819150
v 0.18926300 0.15827900 0.03431560
v 0.19098200 0.14969800 0.04634490
v 0.19098200 0.13937500 0.06700710
v 0.18066900 0.12907700 0.11866200
v 0.20132000 0.08775810 0.12899400
v 0.10324800 0.04131620 0.49553500
v 0.10317000 0.04123820 0.49581800
v 0.10822200 0.01073630 0.49581800
v 0.10822200 0.00277927 0.49581800
v 0.24259600 0.04646480 -0.94713700
v 0.23928900 0.00277927 -0.94883500
v 0.23744000 0.04131620 -0.94968400
v 0.23228400 0.07743480 -0.94713700
v 0.23056500 0.10325600 -0.94289100
v 0.23228400 0.11875400 -0.93171100
v 0.23486200 0.11357900 -0.93043700
v 0.23400200 0.12047000 -0.92222900
v 0.24431500 0.11014700 -0.90156700
v 0.19957500 0.17895200 -0.08951590
v 0.19957500 0.16862800 -0.04819150
v 0.17895100 0.20992200 -0.19282700
v 0.17895100 0.19959800 -0.08951590
v 0.20991400 0.17895200 -0.85345000
v 0.22369000 0.15141400 -0.89123600
v 0.22022600 0.15827900 -0.88430100
v 0.23400200 0.13079400 -0.90156700
v 0.17895100 0.16862800 0.03431560
v 0.17895100 0.14795600 0.08597100
v 0.17033100 0.12907700 0.14965600
v 0.08606080 0.07571850 0.49581800
v 0.09697210 0.05569600 0.49581800
v 0.00238962 0.00277927 0.49581800
v 0.23744000 0.00277927 -0.94968400
v 0.22712700 0.07228610 -0.94968400
v 0.22194500 0.10840500 -0.94713700
v 0.22194500 0.11875400 -0.94204200
v 0.22194500 0.12907700 -0.93680600
v 0.22369000 0.13079400 -0.93256000
v 0.21163300 0.16002100 -0.92138000
v 0.23228400 0.12907700 -0.91104900
v 0.17895100 0.18927500 -0.04819150
v 0.12733600 0.24089200 -0.18249600
v 0.15830000 0.22024500 -0.15150200
v 0.16861200 0.20992200 -0.09984690
v 0.17895100 0.20992200 -0.85345000
v 0.15830000 0.20992200 -0.05852260
v 0.16861200 0.19959800 -0.04819150
v 0.20991400 0.16862800 -0.90496400
v 0.21335100 0.16173700 -0.91189800
v 0.15830000 0.18927500 0.03431560
v 0.13764900 0.16862800 0.13762600
v 0.15830000 0.14795600 0.13762600
v 0.16861200 0.13763200 0.13762600
v 0.07572230 0.08604180 0.49581800
v 0.00238962 0.10822300 0.49581800
v 0.00238962 0.00277927 -0.72523100
v 0.21678900 0.00277927 -0.94968400
v 0.21678900 0.10325600 -0.94968400
v 0.20132000 0.13937500 -0.94713700
v 0.20132000 0.14969800 -0.94204200
v 0.20132000 0.16002100 -0.93680600
v 0.20303900 0.16173700 -0.93256000
v 0.20132000 0.17034500 -0.92138000
v 0.11358700 0.24775600 -0.18589200
v 0.11702400 0.24089200 -0.11017800
v 0.12733600 0.24089200 -0.86378100
v 0.14796100 0.22024500 -0.07918480
v 0.17895100 0.19959800 -0.90496400
v 0.16861200 0.20992200 -0.90496400
v 0.15830000 0.22024500 -0.88430100
v 0.12733600 0.23056800 -0.06885370
v 0.13764900 0.22024500 -0.04819150
v 0.12733600 0.20992200 0.02398450
v 0.11874300 0.21163800 0.03601380
v 0.14968000 0.19099100 0.04634490
v 0.13936800 0.19099100 0.06700710
v 0.12905500 0.18066800 0.11866200
v 0.13764900 0.17895200 0.10663300
v 0.12905500 0.17034500 0.14965600
v 0.05569650 0.09698920 0.49581800
v 0.08777950 0.20131500 0.12899400
v 0.01072290 0.10822300 0.49581800
v 0.00238962 0.11238300 0.48760900
v 0.00238962 0.14109100 -0.90156700
v 0.14108600 0.00277927 -0.90156700
v 0.00238962 0.21678600 -0.94968400
v 0.18582600 0.00277927 -0.93949500
v 0.00238962 0.18581700 -0.93949500
v 0.19613800 0.13422600 -0.94968400
v 0.13423700 0.19614000 -0.94968400
v 0.13936800 0.20131500 -0.94713700
v 0.15486200 0.19614000 -0.94331600
v 0.18582600 0.16517000 -0.94331600
v 0.19613800 0.15484700 -0.94331600
v 0.16001800 0.20131500 -0.93680600
v 0.16173700 0.20303100 -0.93256000
v 0.16001800 0.21163800 -0.92138000
v 0.05163400 0.26840300 -0.19622300
v 0.08259730 0.25808000 -0.16523000
v 0.10324800 0.24775600 -0.11357500
v 0.11358700 0.24775600 -0.86717700
v 0.10668600 0.24089200 -0.06885370
v 0.12046200 0.24432400 -0.87057400
v 0.16173700 0.21335400 -0.91189800
v 0.15139900 0.22367700 -0.89123600
v 0.10668600 0.23056800 -0.01733980
v 0.11702400 0.22024500 0.00332234
v 0.09809190 0.23228400 -0.00516896
v 0.09809190 0.21163800 0.07733820
v 0.04132160 0.10325600 0.49553500
v 0.04121740 0.10317800 0.49581800
v 0.08259730 0.22711000 0.04125010
v 0.04647780 0.23228400 0.05667600
v 0.04647780 0.21163800 0.12899400
v 0.01033230 0.11357900 0.48520400
v 0.00238962 0.11357900 0.48520400
v 0.00238962 0.17206100 -0.93256000
v 0.17205000 0.00277927 -0.93256000
v 0.15139900 0.00277927 -0.91189800
v 0.00238962 0.23743300 -0.94968400
v 0.00238962 0.17788600 -0.93553200
v 0.10324800 0.21678600 -0.94968400
v 0.10840400 0.22196100 -0.94713700
v 0.11874300 0.22196100 -0.94204200
v 0.14968000 0.20131500 -0.94204200
v 0.12905500 0.22196100 -0.93680600
v 0.11874300 0.23228400 -0.93171100
v 0.12905500 0.23228400 -0.91104900
v 0.04132160 0.26840300 -0.15489900
v 0.05163400 0.26840300 -0.85684600
v 0.07228490 0.25808000 -0.12390600
v 0.09293570 0.24775600 -0.07239170
v 0.11014900 0.24432400 -0.90156700
v 0.10324800 0.24775600 -0.89817000
v 0.08259730 0.25808000 -0.87750800
v 0.09809190 0.24260800 -0.05682440
v 0.13077400 0.23400100 -0.90156700
v 0.09293570 0.23743300 -0.02073630
v 0.07228490 0.23743300 0.01025690
v 0.04991530 0.23571700 0.03955190
v 0.03957680 0.23571700 0.04988300
v 0.07056610 0.23571700 0.01888970
v 0.03098310 0.23743300 0.05158120
v 0.03098310 0.21678600 0.12375700
v 0.02067070 0.22711000 0.09290550
v 0.00238962 0.22711000 0.09290550
v 0.04132160 0.23743300 -0.94968400
v 0.00238962 0.23904500 -0.94897700
v 0.04647780 0.24260800 -0.94713700
v 0.10324800 0.23056800 -0.94289100
v 0.09293570 0.24089200 -0.93256000
v 0.11358700 0.23485900 -0.93043700
v 0.09981070 0.24432400 -0.92222900
v 0.12046200 0.23400100 -0.92222900
v 0.03098310 0.26840300 -0.12390600
v 0.06194640 0.25808000 -0.08272280
v 0.04132160 0.26840300 -0.88783900
v 0.04132160 0.24775600 -0.00007418
v 0.09293570 0.24775600 -0.91883300
v 0.07228490 0.25808000 -0.89817000
v 0.03957680 0.24604000 0.00855864
v 0.03098310 0.24775600 0.01025690
v 0.00238962 0.24775600 0.01025690
v 0.00238962 0.24591000 -0.94558000
v 0.04132160 0.25121500 -0.94289100
v 0.05163400 0.25550500 -0.93043700
v 0.09809190 0.24260800 -0.92647500
v 0.00238962 0.26840300 -0.12390600
v 0.03098310 0.25808000 -0.04139850
v 0.04132160 0.26582900 -0.89944400
v 0.03098310 0.26840300 -0.89817000
v 0.07228490 0.25550500 -0.90977500
v 0.00238962 0.25808000 -0.04139850
v 0.00238962 0.25121500 -0.94289100
v 0.00238962 0.25199500 -0.94133500
v 0.04132160 0.25808000 -0.92916400
v 0.00238962 0.26840300 -0.89817000
v 0.00238962 0.25808000 -0.92916400
v 0.00236311 0.10822300 0.49581800
v -0.00993719 0.10822300 0.49581800
v 0.00236311 0.00277927 0.49581800
v 0.00236311 0.11238300 0.48760900
v -0.04090000 0.10325600 0.49581800
v -0.01378100 0.11014700 0.49199700
v -0.10820700 0.00277927 0.49581800
v 0.00236311 0.00277927 -0.72523100
v 0.00236311 0.11357900 0.48520400
v -0.01033480 0.11357900 0.48520400
v -0.02194590 0.11100500 0.48520400
v -0.04129760 0.10325600 0.49553500
v -0.04135070 0.10315200 0.49581800
v -0.10820700 0.01034620 0.49581800
v -0.10961200 0.00277927 0.49312900
v -0.14107900 0.00277927 -0.90156700
v 0.00236311 0.14109100 -0.90156700
v 0.00236311 0.22711000 0.09290550
v -0.02067340 0.22711000 0.09290550
v -0.03098550 0.21678600 0.12375700
v -0.04259660 0.21421200 0.12375700
v -0.08389800 0.20388900 0.12375700
v -0.04797800 0.09984960 0.49581800
v -0.10698800 0.02105960 0.49581800
v -0.11099100 0.01549490 0.49029800
v -0.11358800 0.01034620 0.48520400
v -0.11358800 0.00277927 0.48520400
v -0.16172900 0.00277927 -0.92222900
v -0.17206800 0.00277927 -0.93256000
v 0.00236311 0.17206100 -0.93256000
v 0.00236311 0.24775600 0.01025690
v -0.03098550 0.23743300 0.05158120
v -0.04259660 0.23485900 0.05158120
v -0.08259910 0.22711000 0.04125010
v -0.09421010 0.21421200 0.07224340
v -0.12519900 0.18324200 0.11342600
v -0.07573320 0.08604180 0.49553500
v -0.06862870 0.08952630 0.49581800
v -0.10306400 0.04170620 0.49581800
v -0.10325000 0.04131620 0.49553500
v -0.21421800 0.03614150 0.12899400
v -0.21678900 0.03099280 0.12375700
v -0.22712800 0.02066950 0.09290550
v -0.22712800 0.00277927 0.09290550
v -0.17707800 0.00277927 -0.93510800
v -0.18582600 0.00277927 -0.93949500
v 0.00236311 0.17788600 -0.93553200
v 0.00236311 0.25808000 -0.04139850
v -0.03098550 0.24775600 0.01025690
v -0.04259660 0.24518200 0.01025690
v -0.05293520 0.23485900 0.04125010
v -0.07358590 0.23485900 0.02058800
v -0.09421010 0.23485900 -0.01040530
v -0.10454900 0.21421200 0.05158120
v -0.13548500 0.19356600 0.06191230
v -0.13763200 0.17895200 0.10323700
v -0.12519900 0.17291900 0.14441900
v -0.08604530 0.07571850 0.49553500
v -0.07560060 0.08591180 0.49581800
v -0.07525600 0.08617190 0.49581800
v -0.13763200 0.16862800 0.13408800
v -0.14797100 0.17895200 0.08257450
v -0.16862200 0.17895200 0.03091900
v -0.18927200 0.15827900 0.03091900
v -0.09272560 0.06235280 0.49581800
v -0.09680810 0.06196280 0.48520400
v -0.20000900 0.09293270 0.12375700
v -0.20387900 0.08775810 0.11866200
v -0.20387900 0.07743480 0.12899400
v -0.23486800 0.03614150 0.05667600
v -0.23744000 0.03099280 0.05158120
v -0.24777800 0.03099280 0.01025690
v -0.24777800 0.00277927 0.01025690
v 0.00236311 0.18581700 -0.93949500
v -0.21678900 0.00277927 -0.94968400
v -0.03098550 0.25808000 -0.04139850
v 0.00236311 0.26840300 -0.12390600
v -0.04129760 0.24775600 -0.00007418
v -0.07228700 0.23743300 0.01025690
v -0.09293770 0.23743300 -0.02073630
v -0.09421010 0.24518200 -0.06206070
v -0.11486100 0.23485900 -0.06206070
v -0.10669600 0.23056800 -0.02073630
v -0.10454900 0.22453500 0.01025690
v -0.11486100 0.21421200 0.03091900
v -0.14582400 0.19356600 0.04125010
v -0.14797100 0.18927500 0.05158120
v -0.08954450 0.06869760 0.49581800
v -0.08591270 0.07558850 0.49581800
v -0.17893400 0.14795600 0.08257450
v -0.16862200 0.13763200 0.13408800
v -0.17291600 0.12907700 0.13932500
v -0.15828300 0.18927500 0.03091900
v -0.16862200 0.19959800 -0.05172960
v -0.18927200 0.16862800 -0.01040530
v -0.19356700 0.14969800 0.03601380
v -0.19958400 0.16862800 -0.05172960
v -0.21034700 0.15484700 -0.05172960
v -0.18322800 0.12907700 0.10833100
v -0.21034700 0.10325600 0.07224340
v -0.21421800 0.09808140 0.06700710
v -0.22453000 0.08775810 0.04634490
v -0.22712800 0.08260940 0.04125010
v -0.24777800 0.04131620 -0.00007418
v -0.25809000 0.03099280 -0.05172960
v -0.25809000 0.00277927 -0.05172960
v 0.00236311 0.21678600 -0.94968400
v -0.23744000 0.00277927 -0.94968400
v -0.03098550 0.26840300 -0.12390600
v -0.06194840 0.25808000 -0.08272280
v 0.00236311 0.26840300 -0.89817000
v -0.09293770 0.24775600 -0.07239170
v -0.10669600 0.24089200 -0.07239170
v -0.12734700 0.23056800 -0.07239170
v -0.12734700 0.20992200 0.02058800
v -0.19356700 0.13937500 0.05667600
v -0.13763200 0.22024500 -0.05172960
v -0.15828300 0.20992200 -0.06206070
v -0.16862200 0.20992200 -0.10324300
v -0.17893400 0.19959800 -0.09305390
v -0.18927200 0.18927500 -0.09305390
v -0.22065900 0.13422600 -0.04139850
v -0.21034700 0.12390300 0.03091900
v -0.20992300 0.15827900 -0.06206070
v -0.19958400 0.17895200 -0.09305390
v -0.20992300 0.16862800 -0.10324300
v -0.22065900 0.14452300 -0.07239170
v -0.23099800 0.12390300 -0.06206070
v -0.23486800 0.09808140 -0.01550000
v -0.22065900 0.09293270 0.05158120
v -0.23486800 0.07743480 0.01535170
v -0.23744000 0.07228610 0.01025690
v -0.24777800 0.09293270 -0.07239170
v -0.25809000 0.06196280 -0.08272280
v -0.26842900 0.03099280 -0.12390600
v -0.26842900 0.00277927 -0.12390600
v 0.00236311 0.23743300 -0.94968400
v -0.23744000 0.04131620 -0.94968400
v -0.24300700 0.00277927 -0.94699500
v -0.04129760 0.26840300 -0.15489900
v -0.07228700 0.25808000 -0.12390600
v 0.00236311 0.25808000 -0.92916400
v -0.03098550 0.26840300 -0.89817000
v -0.10325000 0.24775600 -0.11357500
v -0.11014200 0.24432400 -0.11357500
v -0.11700800 0.24089200 -0.11357500
v -0.14797100 0.22024500 -0.08272280
v -0.12734700 0.24089200 -0.18589200
v -0.15828300 0.22024500 -0.15489900
v -0.17893400 0.20992200 -0.19622300
v -0.18927200 0.19959800 -0.19622300
v -0.20992300 0.17895200 -0.19622300
v -0.23099800 0.10325600 -0.01040530
v -0.22023500 0.14795600 -0.08272280
v -0.22023500 0.15827900 -0.15489900
v -0.24088600 0.12733500 -0.18589200
v -0.24088600 0.11701200 -0.11357500
v -0.22453000 0.13937500 -0.07748650
v -0.23486800 0.11875400 -0.06715540
v -0.24518000 0.09808140 -0.06715540
v -0.24777800 0.10325600 -0.11357500
v -0.25809000 0.07228610 -0.12390600
v -0.26842900 0.04131620 -0.15489900
v -0.26842900 0.00277927 -0.89817000
v 0.00236311 0.23904500 -0.94897700
v -0.04129760 0.23743300 -0.94968400
v -0.24433200 0.04474860 -0.94628800
v -0.22712800 0.07228610 -0.94968400
v -0.24499500 0.00277927 -0.94600500
v -0.25119800 0.03785770 -0.94289100
v -0.05163630 0.26840300 -0.19622300
v -0.08259910 0.25808000 -0.16523000
v 0.00236311 0.25199500 -0.94133500
v -0.04129760 0.25808000 -0.92916400
v -0.07228700 0.25808000 -0.89817000
v -0.04129760 0.26840300 -0.88783900
v -0.05163630 0.25808000 -0.91883300
v -0.11358800 0.24775600 -0.18589200
v -0.12734700 0.24089200 -0.86717700
v -0.17893400 0.20992200 -0.85684600
v -0.18927200 0.19959800 -0.85684600
v -0.20992300 0.17895200 -0.85684600
v -0.24433200 0.12047000 -0.18589200
v -0.24518000 0.11875400 -0.18079700
v -0.24088600 0.12733500 -0.86717700
v -0.24518000 0.10840500 -0.10848000
v -0.25809000 0.08260940 -0.16523000
v -0.24777800 0.11357900 -0.18589200
v -0.26842900 0.05163950 -0.19622300
v -0.26842900 0.03099280 -0.89817000
v -0.25809000 0.00277927 -0.92916400
v -0.04129760 0.25121500 -0.94289100
v 0.00236311 0.24591000 -0.94558000
v -0.07228700 0.22711000 -0.94968400
v -0.22368100 0.10668800 -0.94628800
v -0.24088600 0.06885370 -0.94289100
v -0.21678900 0.10325600 -0.94968400
v -0.25119800 0.00277927 -0.94289100
v -0.25432600 0.00277927 -0.93666400
v -0.25809000 0.04131620 -0.92916400
v -0.25464400 0.04474860 -0.93595700
v -0.25292100 0.05421380 -0.93425800
v -0.05163630 0.26840300 -0.85684600
v 0.00236311 0.25121500 -0.94289100
v -0.04646700 0.25550500 -0.93425800
v -0.09293770 0.24775600 -0.91883300
v -0.08259910 0.25808000 -0.87750800
v -0.11358800 0.24775600 -0.86717700
v -0.11873100 0.24518200 -0.87227200
v -0.14969400 0.22453500 -0.89293400
v -0.15828300 0.22024500 -0.88783900
v -0.16862200 0.20992200 -0.90850200
v -0.20992300 0.16862800 -0.90850200
v -0.22023500 0.15827900 -0.88783900
v -0.24433200 0.12047000 -0.86717700
v -0.23054700 0.13763200 -0.89817000
v -0.23399300 0.13079400 -0.89817000
v -0.24777800 0.11357900 -0.86717700
v -0.26842900 0.05163950 -0.85684600
v -0.26842900 0.04131620 -0.88783900
v -0.26583100 0.04259030 -0.89817000
v -0.25551900 0.05291360 -0.92916400
v -0.07228700 0.24089200 -0.94289100
v -0.10325000 0.24130800 -0.92916400
v -0.10325000 0.21678600 -0.94968400
v -0.23054700 0.09982360 -0.94289100
v -0.22195800 0.11615400 -0.94458900
v -0.21678900 0.11488000 -0.94713700
v -0.24260900 0.08518370 -0.93425800
v -0.19613800 0.13422600 -0.94968400
v -0.24433200 0.09636520 -0.92562600
v -0.09808050 0.24518200 -0.92392700
v -0.10841900 0.24518200 -0.90326500
v -0.10325000 0.24775600 -0.89817000
v -0.08776840 0.25550500 -0.88260300
v -0.12907000 0.23485900 -0.90326500
v -0.15483700 0.22066100 -0.89817000
v -0.16000600 0.21421200 -0.91359600
v -0.16000600 0.20906300 -0.92392700
v -0.16862200 0.19959800 -0.92916400
v -0.18927200 0.17895200 -0.92916400
v -0.19958400 0.16862800 -0.92916400
v -0.21162000 0.15742100 -0.92392700
v -0.21421800 0.15614700 -0.91883300
v -0.23486800 0.12520300 -0.90850200
v -0.24433200 0.11014700 -0.89817000
v -0.24777800 0.10325600 -0.89817000
v -0.25809000 0.08260940 -0.87750800
v -0.25809000 0.07228610 -0.89817000
v -0.25551900 0.07356030 -0.90850200
v -0.24777800 0.09293270 -0.91883300
v -0.10325000 0.23056800 -0.94289100
v -0.10841900 0.23485900 -0.93425800
v -0.11873100 0.22971000 -0.93425800
v -0.12390100 0.23098400 -0.92916400
v -0.11358800 0.24130800 -0.90850200
v -0.11358800 0.21808700 -0.94713700
v -0.13421300 0.19614000 -0.94968400
v -0.23227000 0.11615400 -0.93425800
v -0.20130800 0.14709800 -0.94458900
v -0.22368100 0.12733500 -0.93595700
v -0.19613800 0.14582300 -0.94713700
v -0.18582600 0.15614700 -0.94713700
v -0.23486800 0.11488000 -0.92916400
v -0.13421300 0.23098400 -0.90850200
v -0.15483700 0.21033800 -0.92916400
v -0.16000600 0.20388900 -0.93425800
v -0.16517500 0.19744000 -0.93680600
v -0.18582600 0.17679300 -0.93680600
v -0.19613800 0.16647000 -0.93680600
v -0.20130800 0.16259600 -0.93425800
v -0.22195800 0.13165200 -0.93425800
v -0.24518000 0.10455600 -0.90850200
v -0.11873100 0.21938700 -0.94458900
v -0.12907000 0.22453500 -0.93425800
v -0.14452500 0.19744000 -0.94713700
v -0.14969400 0.19874000 -0.94458900
v -0.19099500 0.15742100 -0.94458900
v -0.20303100 0.15827900 -0.93595700
v 0.00051932 -0.26842900 -0.89817000
v 0.00051932 -0.25810200 -0.92916400
v 0.03099220 -0.26842900 -0.89817000
v 0.00051932 -0.26842900 -0.12390600
v 0.00051932 -0.25120000 -0.94289100
v 0.03099220 -0.25810200 -0.92916400
v 0.04260970 -0.26582700 -0.89817000
v 0.04129840 -0.26842900 -0.88783900
v 0.05163090 -0.25810200 -0.91883300
v 0.03099220 -0.26842900 -0.12390600
v 0.00051932 -0.25810200 -0.05172960
v 0.00051932 -0.24724400 -0.94487300
v 0.02755680 -0.25120000 -0.94289100
v 0.03442760 -0.25465100 -0.93595700
v 0.06324840 -0.25550000 -0.91883300
v 0.07358080 -0.25550000 -0.90850200
v 0.07226960 -0.25810200 -0.89817000
v 0.08260210 -0.25810200 -0.87750800
v 0.05163090 -0.26842900 -0.85684600
v 0.05506630 -0.25465100 -0.92562600
v 0.04129840 -0.26842900 -0.15489900
v 0.06196340 -0.25810200 -0.08272280
v 0.03099220 -0.25810200 -0.05172960
v 0.00051932 -0.24777500 0.01025690
v 0.00051932 -0.23848400 -0.94926000
v 0.06883420 -0.24087300 -0.94289100
v 0.07573120 -0.24432400 -0.93595700
v 0.04476010 -0.24432400 -0.94628800
v 0.09293450 -0.24777500 -0.91883300
v 0.09636990 -0.24432400 -0.92562600
v 0.10326700 -0.24777500 -0.89817000
v 0.11357300 -0.24777500 -0.86717700
v 0.05163090 -0.26842900 -0.19622300
v 0.07226960 -0.25810200 -0.12390600
v 0.10326700 -0.24777500 -0.11357500
v 0.09293450 -0.24777500 -0.07239170
v 0.04129840 -0.24777500 -0.00007418
v 0.03099220 -0.24777500 0.01025690
v 0.00051932 -0.22712100 0.09290550
v 0.00051932 -0.23744800 -0.94968400
v 0.04129840 -0.23744800 -0.94968400
v 0.09980540 -0.23057200 -0.94289100
v 0.08519830 -0.24259800 -0.93425800
v 0.10670200 -0.22367000 -0.94628800
v 0.10326700 -0.21679400 -0.94968400
v 0.10455200 -0.24517400 -0.90850200
v 0.11485800 -0.23487300 -0.92916400
v 0.11616900 -0.23227100 -0.93425800
v 0.11700900 -0.24087300 -0.89817000
v 0.12047000 -0.24432400 -0.86717700
v 0.11357300 -0.24777500 -0.18589200
v 0.08260210 -0.25810200 -0.16523000
v 0.10840700 -0.24517400 -0.10848000
v 0.09810080 -0.24517400 -0.06715540
v 0.11873900 -0.24517400 -0.18079700
v 0.09810080 -0.23487300 -0.01550000
v 0.07226960 -0.23744800 0.01025690
v 0.06196340 -0.23744800 0.02058800
v 0.03099220 -0.23744800 0.05158120
v 0.02065970 -0.22712100 0.09290550
v 0.00051932 -0.11357800 0.48520400
v 0.00051932 -0.21679400 -0.94968400
v 0.11616900 -0.22194500 -0.94458900
v 0.11485800 -0.21679400 -0.94713700
v 0.13423800 -0.19614000 -0.94968400
v 0.12734100 -0.23057200 -0.91883300
v 0.15742100 -0.21164400 -0.92392700
v 0.15613600 -0.21421900 -0.91883300
v 0.12734100 -0.22367000 -0.93595700
v 0.14711400 -0.21164400 -0.93425800
v 0.15828600 -0.22024500 -0.88783900
v 0.12734100 -0.24087300 -0.86717700
v 0.12047000 -0.24432400 -0.18589200
v 0.11700900 -0.24087300 -0.11357500
v 0.13935200 -0.22454600 -0.07748650
v 0.11873900 -0.23487300 -0.06715540
v 0.12734100 -0.24087300 -0.18589200
v 0.07743580 -0.23487300 0.01535170
v 0.10326700 -0.23099700 -0.01040530
v 0.12390600 -0.21034300 0.03091900
v 0.11357300 -0.21034300 0.05158120
v 0.09293450 -0.22067000 0.05158120
v 0.08776830 -0.22454600 0.04634490
v 0.08260210 -0.22712100 0.04125010
v 0.03615840 -0.23487300 0.05667600
v 0.03615840 -0.21421900 0.12899400
v 0.03099220 -0.21679400 0.12375700
v 0.01032730 -0.11357800 0.48520400
v 0.00051932 -0.11004700 0.49228000
v 0.21679300 0.00275272 -0.94968400
v 0.00051932 -0.18581400 -0.93949500
v 0.18582200 0.00275272 -0.93949500
v 0.14711400 -0.20131700 -0.94458900
v 0.14580300 -0.19614000 -0.94713700
v 0.16518300 -0.16518600 -0.94968400
v 0.17680100 -0.16518600 -0.94713700
v 0.16861900 -0.20991900 -0.90850200
v 0.16258700 -0.20131700 -0.93425800
v 0.16861900 -0.19959200 -0.92916400
v 0.15828600 -0.20301600 -0.93595700
v 0.17895100 -0.20991900 -0.85684600
v 0.13764700 -0.23057200 -0.13423700
v 0.14798000 -0.22024500 -0.08272280
v 0.14451800 -0.22067000 -0.07239170
v 0.12390600 -0.23099700 -0.06206070
v 0.17895100 -0.20991900 -0.19622300
v 0.15828600 -0.22024500 -0.15489900
v 0.14968400 -0.19356500 0.03601380
v 0.15485100 -0.21034300 -0.05172960
v 0.13935200 -0.19356500 0.05667600
v 0.09293450 -0.20001600 0.12375700
v 0.08776830 -0.20389200 0.11866200
v 0.07743580 -0.20389200 0.12899400
v 0.04171800 -0.10306500 0.49581800
v 0.04129840 -0.10325100 0.49553500
v 0.01549350 -0.11100300 0.49029800
v 0.01032730 -0.10821500 0.49581800
v 0.00051932 -0.10821500 0.49581800
v 0.23743200 0.00275272 -0.94968400
v 0.00051932 -0.17206200 -0.93256000
v 0.17205400 0.00275272 -0.93256000
v 0.17808600 -0.17033600 -0.94458900
v 0.19743900 -0.16518600 -0.93680600
v 0.16646800 -0.19614000 -0.93680600
v 0.19615400 -0.13420500 -0.94968400
v 0.19743900 -0.14453200 -0.94713700
v 0.17895100 -0.19959200 -0.90850200
v 0.17895100 -0.18926500 -0.92916400
v 0.20992200 -0.17893800 -0.85684600
v 0.16861900 -0.20991900 -0.10324300
v 0.15828600 -0.20991900 -0.06206070
v 0.20992200 -0.17893800 -0.19622300
v 0.17895100 -0.19959200 -0.09305390
v 0.12907200 -0.18323800 0.10833100
v 0.15828600 -0.18926500 0.03091900
v 0.12907200 -0.17291100 0.13932500
v 0.16861900 -0.19959200 -0.05172960
v 0.07573120 -0.08604840 0.49553500
v 0.06196340 -0.09680010 0.48520400
v 0.06235670 -0.09273830 0.49581800
v 0.02105310 -0.10696800 0.49581800
v 0.00051932 0.00275272 0.49581800
v 0.23929400 0.00275272 -0.94883500
v 0.23743200 -0.04131600 -0.94968400
v 0.00051932 -0.14108100 -0.90156700
v 0.14108300 0.00275272 -0.90156700
v 0.16172100 0.00275272 -0.92222900
v 0.19872400 -0.14968200 -0.94458900
v 0.20389000 -0.16000900 -0.93425800
v 0.19959000 -0.16861100 -0.92916400
v 0.21679300 -0.10325100 -0.94968400
v 0.21807800 -0.11357800 -0.94713700
v 0.21936300 -0.11875500 -0.94458900
v 0.20992200 -0.16861100 -0.90850200
v 0.22022800 -0.15828400 -0.88783900
v 0.24089300 -0.12735600 -0.86717700
v 0.24089300 -0.12735600 -0.18589200
v 0.22022800 -0.15828400 -0.15489900
v 0.20992200 -0.16861100 -0.10324300
v 0.19959000 -0.17893800 -0.09305390
v 0.17895100 -0.16861100 0.03091900
v 0.14798000 -0.17893800 0.08257450
v 0.13764700 -0.16861100 0.13408800
v 0.08603750 -0.07572140 0.49553500
v 0.07560010 -0.08591560 0.49581800
v 0.06870310 -0.08955260 0.49581800
v 0.17895100 -0.14795700 0.08257450
v 0.00051932 0.00275272 -0.72466500
v 0.10822300 0.00275272 0.49581800
v 0.24619100 0.00275272 -0.94543900
v 0.22712500 -0.07227030 -0.94968400
v 0.24432900 -0.04131600 -0.94628800
v 0.22452900 -0.12905500 -0.93425800
v 0.21034200 -0.15485900 -0.92916400
v 0.21422300 -0.16000900 -0.91359600
v 0.22369000 -0.10325100 -0.94628800
v 0.23056100 -0.10325100 -0.94289100
v 0.22067400 -0.15485900 -0.89817000
v 0.22452900 -0.14968200 -0.89293400
v 0.24519400 -0.11875500 -0.87227200
v 0.24776400 -0.11357800 -0.18589200
v 0.24089300 -0.11702900 -0.11357500
v 0.22022800 -0.14795700 -0.08272280
v 0.20992200 -0.15828400 -0.06206070
v 0.19959000 -0.16861100 -0.05172960
v 0.18925700 -0.15828400 0.03091900
v 0.08952530 -0.06863330 0.49581800
v 0.08616860 -0.07527010 0.49581800
v 0.08590640 -0.07558870 0.49581800
v 0.16861900 -0.13763000 0.13408800
v 0.17291900 -0.12520600 0.14441900
v 0.18325200 -0.12520600 0.11342600
v 0.20389000 -0.08389800 0.12375700
v 0.17895100 -0.13763000 0.10323700
v 0.10822300 -0.00993694 0.49581800
v 0.11357300 0.00275272 0.48520400
v 0.25120000 0.00275272 -0.94289100
v 0.25120000 -0.04131600 -0.94289100
v 0.24089300 -0.07227030 -0.94289100
v 0.22969500 -0.11875500 -0.93425800
v 0.23098000 -0.12390500 -0.92916400
v 0.24131300 -0.10325100 -0.92916400
v 0.23486200 -0.10842800 -0.93425800
v 0.24131300 -0.11357800 -0.90850200
v 0.24519400 -0.10842800 -0.90326500
v 0.25809700 -0.08259720 -0.87750800
v 0.24776400 -0.11357800 -0.86717700
v 0.26842900 -0.05164290 -0.19622300
v 0.25809700 -0.08259720 -0.16523000
v 0.24776400 -0.10325100 -0.11357500
v 0.24432900 -0.09982650 -0.07239170
v 0.24089300 -0.10670200 -0.07239170
v 0.23056100 -0.12735600 -0.07239170
v 0.20992200 -0.12735600 0.02058800
v 0.19355800 -0.14580700 0.04125010
v 0.18925700 -0.14795700 0.05158120
v 0.09985780 -0.04797940 0.49581800
v 0.19355800 -0.13548000 0.06191230
v 0.21422300 -0.09422500 0.07224340
v 0.22712500 -0.08259720 0.04125010
v 0.23486200 -0.04259020 0.05158120
v 0.21422300 -0.04259020 0.12375700
v 0.10326700 -0.04131600 0.49553500
v 0.10316200 -0.04136910 0.49581800
v 0.10326700 -0.04091780 0.49581800
v 0.11013800 -0.01378630 0.49199700
v 0.11357300 -0.01033510 0.48520400
v 0.22712500 0.00275272 0.09290550
v 0.25214400 0.00275272 -0.94105100
v 0.25809700 -0.04131600 -0.92916400
v 0.25550000 -0.04646620 -0.93425800
v 0.24519400 -0.09810090 -0.92392700
v 0.26842900 -0.05164290 -0.85684600
v 0.25809700 -0.07227030 -0.89817000
v 0.26842900 -0.04131600 -0.88783900
v 0.26842900 -0.04131600 -0.15489900
v 0.25809700 -0.07227030 -0.12390600
v 0.25809700 -0.06196990 -0.08272280
v 0.24776400 -0.09292410 -0.07239170
v 0.24519400 -0.09422500 -0.06206070
v 0.23486200 -0.11487900 -0.06206070
v 0.23056100 -0.10670200 -0.02073630
v 0.21422300 -0.11487900 0.03091900
v 0.23486200 -0.09422500 -0.01040530
v 0.23486200 -0.07357110 0.02058800
v 0.24519400 -0.04259020 0.01025690
v 0.23743200 -0.03098900 0.05158120
v 0.21679300 -0.03098900 0.12375700
v 0.11100300 -0.02196290 0.48520400
v 0.22712500 -0.02066210 0.09290550
v 0.24776400 0.00275272 0.01025690
v 0.25809700 0.00275272 -0.92916400
v 0.26842900 -0.03098900 -0.89817000
v 0.25809700 -0.06196990 -0.90850200
v 0.24776400 -0.09292410 -0.91883300
v 0.26842900 -0.03098900 -0.12390600
v 0.25809700 -0.03098900 -0.05172960
v 0.24776400 -0.04131600 -0.00007418
v 0.23743200 -0.07227030 0.01025690
v 0.23743200 -0.09292410 -0.02073630
v 0.24776400 -0.03098900 0.01025690
v 0.25809700 0.00275272 -0.05172960
v 0.26842900 0.00275272 -0.89817000
v 0.26842900 0.00275272 -0.12390600
v -0.03099310 -0.26842900 -0.89817000
v 0.00049299 -0.26842900 -0.89817000
v -0.04131300 -0.26842900 -0.88783900
v -0.03960180 -0.26670300 -0.89647200
v -0.05163290 -0.25810200 -0.91883300
v -0.03099310 -0.25810200 -0.92916400
v 0.00049299 -0.25810200 -0.92916400
v 0.00049299 -0.26842900 -0.12390600
v -0.08261880 -0.25810200 -0.87750800
v -0.07227260 -0.25810200 -0.89817000
v -0.09293870 -0.24777500 -0.91883300
v -0.05163290 -0.26842900 -0.85684600
v -0.06711270 -0.25292500 -0.92392700
v -0.04647290 -0.25292500 -0.93425800
v -0.03441550 -0.25120000 -0.94289100
v 0.00049299 -0.25120000 -0.94289100
v 0.00049299 -0.25810200 -0.05172960
v -0.03099310 -0.26842900 -0.12390600
v -0.11357800 -0.24777500 -0.86717700
v -0.10325900 -0.24777500 -0.89817000
v -0.08261880 -0.25810200 -0.16523000
v -0.10841800 -0.24259800 -0.91359600
v -0.10497000 -0.23917400 -0.93086200
v -0.05163290 -0.26842900 -0.19622300
v -0.08777870 -0.24259800 -0.93425800
v -0.07572130 -0.24087300 -0.94289100
v -0.04131300 -0.23744800 -0.94968400
v 0.00049299 -0.23848400 -0.94926000
v 0.00049299 -0.24724400 -0.94487300
v 0.00049299 -0.24777500 0.01025690
v -0.03099310 -0.25810200 -0.05172960
v -0.06195270 -0.25810200 -0.08272280
v -0.04131300 -0.26842900 -0.15489900
v -0.12734700 -0.24087300 -0.87057400
v -0.11357800 -0.24777500 -0.18589200
v -0.11702700 -0.24087300 -0.90156700
v -0.07227260 -0.25810200 -0.12390600
v -0.10325900 -0.24777500 -0.11357500
v -0.12734700 -0.23057200 -0.92222900
v -0.11873800 -0.23227100 -0.93425800
v -0.10670700 -0.23057200 -0.94289100
v -0.10325900 -0.21679400 -0.94968400
v 0.00049299 -0.23744800 -0.94968400
v -0.03099310 -0.24777500 0.01025690
v 0.00049299 -0.22712100 0.09290550
v -0.09293870 -0.24777500 -0.07239170
v -0.04131300 -0.24777500 -0.00007418
v -0.17894600 -0.20991900 -0.86024300
v -0.15828000 -0.22024500 -0.89123600
v -0.12734700 -0.24087300 -0.18928900
v -0.12045000 -0.24432400 -0.18249600
v -0.09980980 -0.24432400 -0.06885370
v -0.11013000 -0.24432400 -0.11017800
v -0.16862600 -0.20991900 -0.91189800
v -0.16001800 -0.21164400 -0.92392700
v -0.14969800 -0.21164400 -0.93425800
v -0.11873800 -0.22194500 -0.94458900
v -0.13419200 -0.19614000 -0.94968400
v -0.14969800 -0.20131700 -0.94458900
v 0.00049299 -0.21679400 -0.94968400
v -0.04131300 -0.24517400 0.01153060
v -0.03099310 -0.23744800 0.05158120
v -0.04131300 -0.23487300 0.05285490
v 0.00049299 -0.11357800 0.48520400
v -0.02067330 -0.22712100 0.09290550
v -0.07227260 -0.23744800 0.01025690
v -0.09293870 -0.23744800 -0.02073630
v -0.07227260 -0.23487300 0.02186170
v -0.20990600 -0.17893800 -0.86024300
v -0.17894600 -0.20991900 -0.19962000
v -0.13079600 -0.23399700 -0.13084000
v -0.16862600 -0.20991900 -0.10678100
v -0.15828000 -0.22024500 -0.15843700
v -0.09980980 -0.23399700 -0.01733980
v -0.12045000 -0.23399700 -0.06885370
v -0.14108900 -0.22367000 -0.07918480
v -0.14796000 -0.22024500 -0.08611930
v -0.20990600 -0.16861100 -0.91189800
v -0.16862600 -0.19959200 -0.93256000
v -0.14453800 -0.18581400 -0.94968400
v -0.20129700 -0.14968200 -0.94458900
v -0.17378600 -0.16346100 -0.94798600
v -0.16517800 -0.16518600 -0.94968400
v -0.21680300 0.00275272 -0.94968400
v -0.18581700 0.00275272 -0.93949500
v 0.00049299 -0.18581400 -0.93949500
v -0.03099310 -0.21679400 0.12375700
v -0.04131300 -0.21421900 0.12517200
v -0.08261880 -0.20389200 0.12517200
v -0.08261880 -0.22712100 0.04125010
v 0.00049299 -0.11004700 0.49228000
v -0.01032710 -0.11357800 0.48520400
v -0.09293870 -0.23487300 -0.00913156
v -0.24089200 -0.12735600 -0.87057400
v -0.22022600 -0.15828400 -0.89123600
v -0.20990600 -0.17893800 -0.19962000
v -0.17894600 -0.19959200 -0.09645040
v -0.15140900 -0.21334300 -0.05852260
v -0.15828000 -0.20991900 -0.06545720
v -0.16862600 -0.19959200 -0.05512610
v -0.08948990 -0.22367000 0.04464660
v -0.12045000 -0.21334300 0.02398450
v -0.15140900 -0.19271600 0.03431560
v -0.23057200 -0.12735600 -0.92222900
v -0.21164300 -0.16000900 -0.92392700
v -0.19958600 -0.16861100 -0.93256000
v -0.22196300 -0.11875500 -0.94458900
v -0.19613700 -0.13420500 -0.94968400
v -0.19442600 -0.14280700 -0.94798600
v -0.21164300 -0.14968200 -0.93425800
v -0.23744300 0.00275272 -0.94968400
v -0.17707700 0.00275272 -0.93510800
v -0.17204900 0.00275272 -0.93256000
v 0.00049299 -0.17206200 -0.93256000
v -0.02067330 -0.11100300 0.48647700
v -0.04131300 -0.10317100 0.49581800
v -0.08777870 -0.20131700 0.12644600
v -0.04210280 -0.10285300 0.49581800
v -0.04902660 -0.10001200 0.49581800
v 0.00049299 -0.10821500 0.49581800
v -0.01032710 -0.10821500 0.49581800
v -0.04091810 -0.10325100 0.49581800
v -0.24776300 -0.11357800 -0.86717700
v -0.24089200 -0.11702900 -0.90156700
v -0.24089200 -0.12735600 -0.18928900
v -0.19958600 -0.17893800 -0.09645040
v -0.20990600 -0.16861100 -0.10678100
v -0.22022600 -0.15828400 -0.15843700
v -0.15828000 -0.18926500 0.02752250
v -0.16862600 -0.17893800 0.02752250
v -0.10841800 -0.21164400 0.05412860
v -0.11013000 -0.21334300 0.04464660
v -0.11873800 -0.21164400 0.03346650
v -0.14969800 -0.19099000 0.04379750
v -0.23228300 -0.11875500 -0.93425800
v -0.23057200 -0.10670200 -0.94289100
v -0.21680300 -0.10325100 -0.94968400
v -0.23744300 -0.04131600 -0.94968400
v -0.24299800 0.00275272 -0.94699500
v -0.14108900 0.00275272 -0.90156700
v 0.00049299 -0.14108100 -0.90156700
v -0.12905800 -0.18066300 0.11611500
v -0.13935200 -0.19099000 0.06445970
v -0.07187770 -0.08795980 0.49581800
v 0.00049299 0.00275272 0.49581800
v -0.26840300 -0.05164290 -0.85684600
v -0.25808300 -0.08259720 -0.87750800
v -0.24776300 -0.10325100 -0.89817000
v -0.24776300 -0.11357800 -0.18589200
v -0.24260300 -0.10842800 -0.91359600
v -0.21335500 -0.16173500 -0.09984690
v -0.24089200 -0.11702900 -0.11711300
v -0.24431400 -0.11012700 -0.11017800
v -0.24431400 -0.12045400 -0.18249600
v -0.19958600 -0.16861100 -0.05512610
v -0.20990600 -0.15828400 -0.06545720
v -0.12905800 -0.17033600 0.14710800
v -0.13764100 -0.16861100 0.13069200
v -0.07572130 -0.08604840 0.49199700
v -0.18926600 -0.15828400 0.02752250
v -0.14108900 -0.19271600 0.05497770
v -0.23915400 -0.10497700 -0.93086200
v -0.24089200 -0.10670200 -0.92222900
v -0.25121200 -0.04474060 -0.94289100
v -0.24089200 -0.09637530 -0.93256000
v -0.24499900 0.00275272 -0.94600500
v 0.00049299 0.00275272 -0.72466500
v -0.07477360 -0.08509260 0.49581800
v -0.10820800 0.00275272 0.49581800
v -0.26840300 -0.04131600 -0.88783900
v -0.26840300 -0.05164290 -0.19622300
v -0.25808300 -0.07227030 -0.89817000
v -0.24776300 -0.09292410 -0.91883300
v -0.24776300 -0.10325100 -0.11357500
v -0.25808300 -0.08259720 -0.16523000
v -0.21335500 -0.15140800 -0.05852260
v -0.22367500 -0.14108100 -0.07918480
v -0.23399400 -0.12045400 -0.06885370
v -0.24431400 -0.09982650 -0.06885370
v -0.08604120 -0.07572140 0.49199700
v -0.16862600 -0.13763000 0.13069200
v -0.17033800 -0.12905500 0.14710800
v -0.19097700 -0.14968200 0.04379750
v -0.19271500 -0.15140800 0.03431560
v -0.25292300 -0.05679310 -0.93425800
v -0.25121200 0.00275272 -0.94289100
v -0.25808300 -0.04131600 -0.92916400
v -0.08509350 -0.07476570 0.49581800
v -0.10962900 0.00275272 0.49312900
v -0.10820800 -0.01033510 0.49581800
v -0.26840300 -0.03098900 -0.89817000
v -0.26669100 -0.03959040 -0.89647200
v -0.25637200 -0.07057120 -0.90680300
v -0.26840300 -0.04131600 -0.15489900
v -0.24776300 -0.09292410 -0.07239170
v -0.25808300 -0.06196990 -0.08272280
v -0.25808300 -0.07227030 -0.12390600
v -0.23399400 -0.09982650 -0.01733980
v -0.21335500 -0.12045400 0.02398450
v -0.23744300 -0.09292410 -0.02073630
v -0.08796300 -0.07187200 0.49581800
v -0.18065800 -0.12905500 0.11611500
v -0.19097700 -0.13935600 0.06445970
v -0.19271500 -0.14108100 0.05497770
v -0.21164300 -0.11875500 0.03346650
v -0.25808300 0.00275272 -0.92916400
v -0.11357800 0.00275272 0.48520400
v -0.11357800 -0.01033510 0.48520400
v -0.10325900 -0.04091780 0.49581800
v -0.26840300 0.00275272 -0.89817000
v -0.26840300 -0.03098900 -0.12390600
v -0.23744300 -0.07227030 0.01025690
v -0.24776300 -0.04131600 -0.00007418
v -0.25808300 -0.03098900 -0.05172960
v -0.23486300 -0.09292410 -0.00913156
v -0.21335500 -0.09982650 0.06530880
v -0.22367500 -0.08949950 0.04464660
v -0.22712300 -0.08259720 0.04125010
v -0.10002000 -0.04904130 0.49581800
v -0.20129700 -0.08777390 0.12644600
v -0.21164300 -0.09810090 0.07479080
v -0.22712300 0.00275272 0.09290550
v -0.11099800 -0.02066210 0.48647700
v -0.10318000 -0.04131600 0.49581800
v -0.22712300 -0.02066210 0.09290550
v -0.21680300 -0.03098900 0.12375700
v -0.21422300 -0.04131600 0.12517200
v -0.26840300 0.00275272 -0.12390600
v -0.23486300 -0.07227030 0.02186170
v -0.24518300 -0.04131600 0.01153060
v -0.24776300 -0.03098900 0.01025690
v -0.25808300 0.00275272 -0.05172960
v -0.21422300 -0.09292410 0.07351710
v -0.20387700 -0.08259720 0.12517200
v -0.23486300 -0.04131600 0.05285490
v -0.23486300 -0.06196990 0.03219270
v -0.10286400 -0.04211240 0.49581800
v -0.24776300 0.00275272 0.01025690
v -0.23744300 -0.03098900 0.05158120
f 1 2 5
f 1 5 11
f 1 11 23
f 1 23 42
f 1 42 49
f 1 49 48
f 1 48 64
f 1 64 75
f 1 75 90
f 1 90 103
f 1 103 124
f 1 124 123
f 1 123 122
f 1 122 121
f 1 121 120
f 1 120 140
f 1 140 151
f 1 151 154
f 1 154 163
f 1 163 170
f 1 170 172
f 1 172 171
f 1 171 169
f 1 169 160
f 1 160 147
f 1 147 132
f 1 132 112
f 1 112 111
f 1 111 110
f 1 110 97
f 1 97 84
f 1 84 83
f 1 83 82
f 1 82 70
f 1 70 57
f 1 57 38
f 1 38 30
f 1 30 16
f 1 16 7
f 1 7 3
f 1 3 4
f 1 4 6
f 1 6 2
f 2 6 5
f 3 7 4
f 4 8 9
f 4 9 10
f 4 10 12
f 4 12 6
f 4 7 8
f 5 6 11
f 6 12 13
f 6 13 14
f 6 14 15
f 6 15 11
f 7 16 17
f 7 17 18
f 7 18 8
f 8 18 19
f 8 19 9
f 9 19 20
f 9 20 40
f 9 40 21
f 9 21 22
f 9 22 10
f 10 22 25
f 10 25 12
f 11 15 24
f 11 24 23
f 12 25 13
f 13 25 26
f 13 26 27
f 13 27 28
f 13 28 29
f 13 29 14
f 14 29 15
f 15 29 24
f 16 30 31
f 16 31 17
f 17 31 18
f 18 32 33
f 18 33 34
f 18 34 35
f 18 35 36
f 18 36 37
f 18 37 19
f 18 31 38
f 18 38 32
f 19 37 20
f 20 37 36
f 20 36 35
f 20 35 39
f 20 39 58
f 20 58 40
f 21 41 25
f 21 25 22
f 21 40 58
f 21 58 72
f 21 72 86
f 21 86 99
f 21 99 117
f 21 117 137
f 21 137 142
f 21 142 125
f 21 125 104
f 21 104 91
f 21 91 76
f 21 76 65
f 21 65 51
f 21 51 41
f 23 24 42
f 24 29 28
f 24 28 43
f 24 43 44
f 24 44 45
f 24 45 46
f 24 46 47
f 24 47 48
f 24 48 49
f 24 49 42
f 25 50 27
f 25 27 26
f 25 41 51
f 25 51 50
f 27 50 52
f 27 52 53
f 27 53 54
f 27 54 44
f 27 44 43
f 27 43 28
f 30 38 31
f 32 38 55
f 32 55 56
f 32 56 33
f 33 56 39
f 33 39 34
f 34 39 35
f 38 57 55
f 39 56 72
f 39 72 58
f 44 54 45
f 45 54 59
f 45 59 60
f 45 60 61
f 45 61 46
f 46 61 62
f 46 62 63
f 46 63 47
f 47 63 75
f 47 75 64
f 47 64 48
f 50 51 52
f 51 65 53
f 51 53 52
f 53 65 66
f 53 66 54
f 54 67 59
f 54 66 67
f 55 68 81
f 55 81 69
f 55 69 56
f 55 57 70
f 55 70 82
f 55 82 68
f 56 69 71
f 56 71 72
f 59 67 73
f 59 73 60
f 60 73 74
f 60 74 61
f 61 74 62
f 62 74 63
f 63 74 75
f 65 76 77
f 65 77 66
f 66 77 67
f 67 77 73
f 68 78 79
f 68 79 80
f 68 80 81
f 68 82 83
f 68 83 84
f 68 84 78
f 69 81 85
f 69 85 71
f 71 85 86
f 71 86 72
f 73 77 87
f 73 87 88
f 73 88 89
f 73 89 74
f 74 89 75
f 75 89 90
f 76 91 100
f 76 100 87
f 76 87 77
f 78 92 93
f 78 93 79
f 78 84 92
f 79 93 80
f 80 94 95
f 80 95 96
f 80 96 85
f 80 85 81
f 80 93 94
f 84 97 92
f 85 98 99
f 85 99 86
f 85 96 95
f 85 95 98
f 87 100 101
f 87 101 88
f 88 101 102
f 88 102 89
f 89 102 124
f 89 124 103
f 89 103 90
f 91 104 126
f 91 126 105
f 91 105 100
f 92 106 107
f 92 107 108
f 92 108 109
f 92 109 94
f 92 94 93
f 92 97 110
f 92 110 111
f 92 111 112
f 92 112 113
f 92 113 106
f 94 109 95
f 95 114 115
f 95 115 116
f 95 116 98
f 95 109 108
f 95 108 114
f 98 116 99
f 99 116 115
f 99 115 117
f 100 118 101
f 100 105 118
f 101 118 102
f 102 118 119
f 102 119 120
f 102 120 121
f 102 121 122
f 102 122 123
f 102 123 124
f 104 125 143
f 104 143 126
f 105 126 144
f 105 144 127
f 105 127 118
f 106 113 133
f 106 133 128
f 106 128 129
f 106 129 107
f 107 130 131
f 107 131 114
f 107 114 108
f 107 129 130
f 112 132 113
f 113 132 147
f 113 147 133
f 114 131 134
f 114 134 135
f 114 135 115
f 115 135 117
f 117 135 136
f 117 136 137
f 118 127 119
f 119 127 138
f 119 138 149
f 119 149 139
f 119 139 120
f 120 139 141
f 120 141 140
f 125 142 156
f 125 156 143
f 126 143 157
f 126 157 144
f 127 144 138
f 128 145 129
f 128 133 145
f 129 145 130
f 130 146 131
f 130 145 146
f 131 146 134
f 133 147 145
f 134 146 136
f 134 136 135
f 136 146 148
f 136 148 137
f 137 148 155
f 137 155 142
f 138 144 149
f 139 149 144
f 139 144 150
f 139 150 141
f 140 141 151
f 141 150 152
f 141 152 153
f 141 153 154
f 141 154 151
f 142 155 156
f 143 156 167
f 143 167 157
f 144 157 152
f 144 152 150
f 145 158 159
f 145 159 146
f 145 147 158
f 146 159 148
f 147 160 158
f 148 159 165
f 148 165 155
f 152 157 153
f 153 157 161
f 153 161 168
f 153 168 162
f 153 162 154
f 154 162 164
f 154 164 163
f 155 165 166
f 155 166 156
f 156 166 167
f 157 167 168
f 157 168 161
f 158 164 165
f 158 165 159
f 158 160 169
f 158 169 171
f 158 171 164
f 162 168 167
f 162 167 166
f 162 166 164
f 163 164 170
f 164 166 165
f 164 171 172
f 164 172 170
f 173 174 179
f 173 179 187
f 173 187 204
f 173 204 191
f 173 191 181
f 173 181 175
f 173 175 176
f 173 176 177
f 173 177 178
f 173 178 174
f 174 178 185
f 174 185 200
f 174 200 222
f 174 222 248
f 174 248 271
f 174 271 295
f 174 295 324
f 174 324 358
f 174 358 357
f 174 357 326
f 174 326 296
f 174 296 272
f 174 272 250
f 174 250 223
f 174 223 201
f 174 201 186
f 174 186 179
f 175 180 176
f 175 181 188
f 175 188 180
f 176 180 189
f 176 189 182
f 176 182 183
f 176 183 184
f 176 184 177
f 177 184 185
f 177 185 178
f 179 186 202
f 179 202 187
f 180 188 189
f 181 190 188
f 181 191 208
f 181 208 190
f 182 189 192
f 182 192 193
f 182 193 194
f 182 194 195
f 182 195 196
f 182 196 183
f 183 196 216
f 183 216 197
f 183 197 184
f 184 197 217
f 184 217 198
f 184 198 199
f 184 199 200
f 184 200 185
f 186 201 224
f 186 224 202
f 187 203 204
f 187 202 205
f 187 205 203
f 188 190 189
f 189 206 192
f 189 190 207
f 189 207 206
f 190 208 235
f 190 235 207
f 191 204 209
f 191 209 208
f 192 210 211
f 192 211 194
f 192 194 193
f 192 206 210
f 194 196 195
f 194 211 212
f 194 212 213
f 194 213 214
f 194 214 215
f 194 215 196
f 196 215 216
f 197 216 215
f 197 215 217
f 198 217 218
f 198 218 219
f 198 219 220
f 198 220 199
f 199 220 221
f 199 221 222
f 199 222 200
f 201 223 224
f 202 224 205
f 203 225 204
f 203 205 225
f 204 225 226
f 204 226 209
f 205 227 228
f 205 228 229
f 205 229 230
f 205 230 225
f 205 224 227
f 206 231 232
f 206 232 210
f 206 207 231
f 207 233 234
f 207 234 231
f 207 235 262
f 207 262 233
f 208 209 236
f 208 236 257
f 208 257 237
f 208 237 235
f 209 226 230
f 209 230 236
f 210 232 238
f 210 238 239
f 210 239 212
f 210 212 211
f 212 240 241
f 212 241 213
f 212 239 240
f 213 241 242
f 213 242 214
f 214 242 243
f 214 243 244
f 214 244 215
f 215 244 218
f 215 218 217
f 218 244 219
f 219 244 245
f 219 245 221
f 219 221 220
f 221 245 246
f 221 246 247
f 221 247 248
f 221 248 222
f 223 249 224
f 223 250 251
f 223 251 249
f 224 249 252
f 224 252 253
f 224 253 227
f 225 230 226
f 227 254 255
f 227 255 228
f 227 253 254
f 228 255 229
f 229 256 265
f 229 265 257
f 229 257 236
f 229 236 230
f 229 255 254
f 229 254 256
f 231 234 233
f 231 233 258
f 231 258 259
f 231 259 238
f 231 238 232
f 233 260 261
f 233 261 258
f 233 262 284
f 233 284 260
f 235 237 263
f 235 263 264
f 235 264 262
f 237 257 265
f 237 265 263
f 238 259 240
f 238 240 239
f 240 266 267
f 240 267 243
f 240 243 241
f 240 259 266
f 241 243 242
f 243 268 269
f 243 269 244
f 243 267 268
f 244 269 270
f 244 270 245
f 245 270 246
f 246 270 269
f 246 269 293
f 246 293 319
f 246 319 350
f 246 350 321
f 246 321 294
f 246 294 271
f 246 271 248
f 246 248 247
f 249 251 273
f 249 273 252
f 250 272 251
f 251 272 296
f 251 296 325
f 251 325 359
f 251 359 386
f 251 386 361
f 251 361 329
f 251 329 328
f 251 328 297
f 251 297 273
f 252 273 297
f 252 297 274
f 252 274 253
f 253 274 275
f 253 275 276
f 253 276 254
f 254 276 277
f 254 277 278
f 254 278 279
f 254 279 265
f 254 265 256
f 258 261 280
f 258 280 259
f 259 280 266
f 260 281 282
f 260 282 283
f 260 283 261
f 260 284 305
f 260 305 281
f 261 283 285
f 261 285 286
f 261 286 280
f 262 264 287
f 262 287 307
f 262 307 284
f 263 265 288
f 263 288 287
f 263 287 264
f 265 279 278
f 265 278 288
f 266 289 290
f 266 290 291
f 266 291 267
f 266 280 289
f 267 291 292
f 267 292 268
f 268 292 269
f 269 292 291
f 269 291 290
f 269 290 293
f 271 294 322
f 271 322 355
f 271 355 385
f 271 385 402
f 271 402 412
f 271 412 407
f 271 407 416
f 271 416 417
f 271 417 414
f 271 414 413
f 271 413 403
f 271 403 387
f 271 387 359
f 271 359 325
f 271 325 327
f 271 327 360
f 271 360 356
f 271 356 323
f 271 323 295
f 274 297 298
f 274 298 275
f 275 299 300
f 275 300 276
f 275 298 299
f 276 300 277
f 277 301 278
f 277 300 301
f 278 302 287
f 278 287 288
f 278 301 302
f 280 286 289
f 281 303 304
f 281 304 282
f 281 305 342
f 281 342 340
f 281 340 303
f 282 304 283
f 283 304 306
f 283 306 285
f 284 307 308
f 284 308 309
f 284 309 305
f 285 306 310
f 285 310 311
f 285 311 289
f 285 289 286
f 287 302 307
f 289 312 313
f 289 313 314
f 289 314 315
f 289 315 316
f 289 316 317
f 289 317 290
f 289 311 312
f 290 317 316
f 290 316 318
f 290 318 293
f 293 318 320
f 293 320 319
f 294 321 322
f 295 323 324
f 296 326 327
f 296 327 325
f 297 328 298
f 298 328 329
f 298 329 330
f 298 330 331
f 298 331 332
f 298 332 333
f 298 333 299
f 299 333 300
f 300 333 332
f 300 332 331
f 300 331 334
f 300 334 335
f 300 335 301
f 301 335 336
f 301 336 302
f 302 336 307
f 303 337 338
f 303 338 339
f 303 339 304
f 303 340 369
f 303 369 337
f 304 339 341
f 304 341 310
f 304 310 306
f 305 309 342
f 307 336 308
f 308 336 343
f 308 343 309
f 309 343 344
f 309 344 342
f 310 341 345
f 310 345 346
f 310 346 312
f 310 312 311
f 312 346 347
f 312 347 313
f 313 348 315
f 313 315 314
f 313 347 348
f 315 348 320
f 315 320 316
f 316 320 318
f 319 349 350
f 319 320 349
f 320 348 351
f 320 351 352
f 320 352 353
f 320 353 349
f 321 350 354
f 321 354 322
f 322 354 355
f 323 356 357
f 323 357 358
f 323 358 324
f 326 357 360
f 326 360 327
f 329 361 362
f 329 362 330
f 330 362 363
f 330 363 331
f 331 363 364
f 331 364 334
f 334 365 366
f 334 366 335
f 334 364 363
f 334 363 365
f 335 366 336
f 336 367 376
f 336 376 343
f 336 366 367
f 337 368 370
f 337 370 338
f 337 369 396
f 337 396 410
f 337 410 416
f 337 416 407
f 337 407 394
f 337 394 368
f 338 370 339
f 339 370 371
f 339 371 341
f 340 342 372
f 340 372 373
f 340 373 374
f 340 374 369
f 341 375 347
f 341 347 345
f 341 371 375
f 342 344 376
f 342 376 372
f 343 376 344
f 345 347 346
f 347 375 371
f 347 371 377
f 347 377 378
f 347 378 351
f 347 351 348
f 349 354 350
f 349 353 354
f 351 379 380
f 351 380 352
f 351 378 381
f 351 381 379
f 352 380 382
f 352 382 353
f 353 382 383
f 353 383 354
f 354 383 384
f 354 384 385
f 354 385 355
f 356 360 357
f 359 387 386
f 361 386 388
f 361 388 362
f 362 388 404
f 362 404 389
f 362 389 363
f 363 389 365
f 365 389 366
f 366 389 390
f 366 390 391
f 366 391 392
f 366 392 393
f 366 393 376
f 366 376 367
f 368 394 395
f 368 395 370
f 369 374 396
f 370 395 371
f 371 395 397
f 371 397 378
f 371 378 377
f 372 376 393
f 372 393 392
f 372 392 398
f 372 398 373
f 373 398 399
f 373 399 374
f 374 399 396
f 378 397 381
f 379 381 400
f 379 400 380
f 380 400 401
f 380 401 382
f 381 397 400
f 382 384 383
f 382 401 402
f 382 402 385
f 382 385 384
f 386 387 388
f 387 403 404
f 387 404 388
f 389 404 390
f 390 405 406
f 390 406 391
f 390 404 405
f 391 406 392
f 392 406 405
f 392 405 398
f 394 407 412
f 394 412 408
f 394 408 395
f 395 408 397
f 396 399 411
f 396 411 409
f 396 409 410
f 397 408 401
f 397 401 400
f 398 411 399
f 398 405 411
f 401 408 412
f 401 412 402
f 403 413 404
f 404 413 414
f 404 414 415
f 404 415 405
f 405 415 409
f 405 409 411
f 409 415 410
f 410 415 417
f 410 417 416
f 414 417 415
f 418 419 422
f 418 422 430
f 418 430 440
f 418 440 455
f 418 455 477
f 418 477 476
f 418 476 506
f 418 506 505
f 418 505 482
f 418 482 456
f 418 456 441
f 418 441 431
f 418 431 424
f 418 424 420
f 418 420 425
f 418 425 434
f 418 434 447
f 418 447 464
f 418 464 491
f 418 491 524
f 418 524 554
f 418 554 582
f 418 582 610
f 418 610 621
f 418 621 590
f 418 590 559
f 418 559 528
f 418 528 494
f 418 494 465
f 418 465 448
f 418 448 435
f 418 435 426
f 418 426 421
f 418 421 419
f 419 421 423
f 419 423 422
f 420 424 432
f 420 432 444
f 420 444 461
f 420 461 490
f 420 490 523
f 420 523 553
f 420 553 581
f 420 581 608
f 420 608 616
f 420 616 615
f 420 615 586
f 420 586 556
f 420 556 525
f 420 525 492
f 420 492 463
f 420 463 462
f 420 462 446
f 420 446 445
f 420 445 433
f 420 433 425
f 421 426 427
f 421 427 423
f 422 423 427
f 422 427 428
f 422 428 429
f 422 429 430
f 424 431 432
f 425 433 434
f 426 435 436
f 426 436 427
f 427 436 437
f 427 437 438
f 427 438 428
f 428 438 429
f 429 438 439
f 429 439 430
f 430 439 440
f 431 441 442
f 431 442 432
f 432 442 443
f 432 443 444
f 433 445 434
f 434 445 446
f 434 446 447
f 435 448 466
f 435 466 449
f 435 449 436
f 436 449 437
f 437 449 450
f 437 450 438
f 438 450 439
f 439 450 451
f 439 451 452
f 439 452 453
f 439 453 454
f 439 454 455
f 439 455 440
f 441 456 442
f 442 456 457
f 442 457 458
f 442 458 443
f 443 458 459
f 443 459 460
f 443 460 461
f 443 461 444
f 446 462 447
f 447 462 463
f 447 463 464
f 448 465 493
f 448 493 466
f 449 466 467
f 449 467 450
f 450 467 468
f 450 468 451
f 451 468 469
f 451 469 470
f 451 470 452
f 452 471 503
f 452 503 472
f 452 472 453
f 452 470 501
f 452 501 471
f 453 472 473
f 453 473 474
f 453 474 454
f 454 475 506
f 454 506 476
f 454 476 477
f 454 477 455
f 454 474 478
f 454 478 479
f 454 479 480
f 454 480 481
f 454 481 475
f 456 482 483
f 456 483 484
f 456 484 485
f 456 485 486
f 456 486 457
f 457 486 458
f 458 486 487
f 458 487 488
f 458 488 459
f 459 488 460
f 460 488 489
f 460 489 490
f 460 490 461
f 463 491 464
f 463 492 491
f 465 494 526
f 465 526 493
f 466 493 495
f 466 495 467
f 467 495 496
f 467 496 469
f 467 469 468
f 469 496 497
f 469 497 470
f 470 497 529
f 470 529 498
f 470 498 499
f 470 499 531
f 470 531 500
f 470 500 501
f 471 502 503
f 471 501 502
f 472 503 504
f 472 504 473
f 473 504 479
f 473 479 478
f 473 478 474
f 475 483 505
f 475 505 506
f 475 481 507
f 475 507 508
f 475 508 509
f 475 509 484
f 475 484 483
f 479 504 510
f 479 510 480
f 480 510 511
f 480 511 538
f 480 538 512
f 480 512 481
f 481 513 509
f 481 509 507
f 481 512 514
f 481 514 515
f 481 515 513
f 482 505 483
f 484 509 516
f 484 516 517
f 484 517 485
f 485 517 518
f 485 518 519
f 485 519 486
f 486 519 487
f 487 519 520
f 487 520 488
f 488 520 489
f 489 520 521
f 489 521 551
f 489 551 522
f 489 522 523
f 489 523 490
f 491 492 524
f 492 525 555
f 492 555 585
f 492 585 614
f 492 614 647
f 492 647 675
f 492 675 642
f 492 642 611
f 492 611 583
f 492 583 554
f 492 554 524
f 493 526 527
f 493 527 495
f 494 528 560
f 494 560 593
f 494 593 620
f 494 620 588
f 494 588 557
f 494 557 526
f 495 527 529
f 495 529 496
f 496 529 497
f 498 529 530
f 498 530 531
f 498 531 499
f 500 531 532
f 500 532 501
f 501 532 502
f 502 532 503
f 503 532 510
f 503 510 504
f 507 509 508
f 509 513 533
f 509 533 516
f 510 532 534
f 510 534 535
f 510 535 511
f 511 535 536
f 511 536 537
f 511 537 538
f 512 538 542
f 512 542 514
f 513 515 539
f 513 539 540
f 513 540 517
f 513 517 533
f 514 541 515
f 514 542 543
f 514 543 541
f 515 541 571
f 515 571 544
f 515 544 545
f 515 545 539
f 516 533 517
f 517 540 546
f 517 546 547
f 517 547 519
f 517 519 518
f 519 547 546
f 519 546 548
f 519 548 520
f 520 548 549
f 520 549 521
f 521 549 550
f 521 550 551
f 522 551 552
f 522 552 553
f 522 553 523
f 525 556 555
f 526 557 527
f 527 557 558
f 527 558 529
f 528 559 591
f 528 591 560
f 529 558 561
f 529 561 562
f 529 562 530
f 530 562 531
f 531 562 563
f 531 563 564
f 531 564 535
f 531 535 534
f 531 534 532
f 535 564 536
f 536 564 563
f 536 563 565
f 536 565 566
f 536 566 567
f 536 567 537
f 537 567 568
f 537 568 538
f 538 568 569
f 538 569 542
f 539 545 540
f 540 545 570
f 540 570 546
f 541 543 571
f 542 569 543
f 543 572 573
f 543 573 574
f 543 574 571
f 543 569 572
f 544 571 575
f 544 575 576
f 544 576 545
f 545 576 570
f 546 570 576
f 546 576 577
f 546 577 550
f 546 550 549
f 546 549 548
f 550 578 579
f 550 579 551
f 550 577 578
f 551 579 580
f 551 580 552
f 552 580 606
f 552 606 636
f 552 636 637
f 552 637 607
f 552 607 581
f 552 581 553
f 554 583 582
f 555 556 584
f 555 584 585
f 556 586 587
f 556 587 584
f 557 588 558
f 558 588 589
f 558 589 561
f 559 590 591
f 560 592 593
f 560 591 594
f 560 594 623
f 560 623 592
f 561 589 595
f 561 595 562
f 562 595 565
f 562 565 563
f 565 567 566
f 565 595 625
f 565 625 596
f 565 596 597
f 565 597 567
f 567 597 598
f 567 598 568
f 568 598 599
f 568 599 569
f 569 573 572
f 569 599 602
f 569 602 573
f 571 574 575
f 573 600 601
f 573 601 574
f 573 602 632
f 573 632 600
f 574 603 575
f 574 601 603
f 575 603 576
f 576 603 577
f 577 603 578
f 578 604 579
f 578 603 601
f 578 601 605
f 578 605 604
f 579 604 606
f 579 606 580
f 581 607 617
f 581 617 608
f 582 583 609
f 582 609 610
f 583 611 640
f 583 640 609
f 584 612 585
f 584 587 613
f 584 613 612
f 585 612 614
f 586 615 587
f 587 615 616
f 587 616 617
f 587 617 618
f 587 618 619
f 587 619 613
f 588 595 589
f 588 620 625
f 588 625 595
f 590 621 609
f 590 609 591
f 591 609 622
f 591 622 623
f 591 623 594
f 592 623 651
f 592 651 624
f 592 624 593
f 593 624 620
f 596 625 626
f 596 626 627
f 596 627 628
f 596 628 597
f 597 628 629
f 597 629 598
f 598 629 630
f 598 630 599
f 599 630 631
f 599 631 602
f 600 605 601
f 600 632 635
f 600 635 605
f 602 631 633
f 602 633 634
f 602 634 632
f 604 605 606
f 605 635 636
f 605 636 606
f 607 637 638
f 607 638 639
f 607 639 617
f 608 617 616
f 609 640 641
f 609 641 622
f 609 621 610
f 611 642 669
f 611 669 640
f 612 613 643
f 612 643 644
f 612 644 645
f 612 645 614
f 613 619 646
f 613 646 676
f 613 676 643
f 614 645 647
f 617 639 618
f 618 639 619
f 619 639 648
f 619 648 646
f 620 624 625
f 622 641 649
f 622 649 623
f 623 649 650
f 623 650 651
f 624 651 650
f 624 650 652
f 624 652 625
f 625 652 650
f 625 650 626
f 626 650 653
f 626 653 627
f 627 653 682
f 627 682 654
f 627 654 628
f 628 654 629
f 629 654 655
f 629 655 656
f 629 656 657
f 629 657 658
f 629 658 630
f 630 658 659
f 630 659 660
f 630 660 661
f 630 661 662
f 630 662 633
f 630 633 631
f 632 634 663
f 632 663 664
f 632 664 635
f 633 662 634
f 634 662 663
f 635 664 665
f 635 665 636
f 636 665 637
f 637 665 666
f 637 666 667
f 637 667 638
f 638 667 639
f 639 667 668
f 639 668 648
f 640 669 641
f 641 669 670
f 641 670 671
f 641 671 672
f 641 672 673
f 641 673 650
f 641 650 649
f 642 674 669
f 642 675 674
f 643 676 644
f 644 677 679
f 644 679 645
f 644 676 678
f 644 678 696
f 644 696 677
f 645 679 647
f 646 648 676
f 647 679 680
f 647 680 675
f 648 681 676
f 648 668 681
f 650 673 653
f 653 673 682
f 654 682 655
f 655 682 672
f 655 672 683
f 655 683 656
f 656 683 684
f 656 684 657
f 657 684 685
f 657 685 686
f 657 686 658
f 658 686 687
f 658 687 659
f 659 687 688
f 659 688 660
f 660 688 689
f 660 689 676
f 660 676 681
f 660 681 661
f 661 681 662
f 662 690 664
f 662 664 663
f 662 681 690
f 664 690 668
f 664 668 666
f 664 666 665
f 666 668 667
f 668 690 681
f 669 674 691
f 669 691 692
f 669 692 671
f 669 671 670
f 671 692 672
f 672 692 684
f 672 684 683
f 672 682 673
f 674 675 693
f 674 693 694
f 674 694 691
f 675 680 693
f 676 689 678
f 677 695 680
f 677 680 679
f 677 696 687
f 677 687 686
f 677 686 695
f 678 689 688
f 678 688 696
f 680 695 694
f 680 694 693
f 684 692 694
f 684 694 685
f 685 694 686
f 686 694 695
f 687 696 688
f 691 694 692
f 697 698 702
f 697 702 699
f 697 699 704
f 697 704 715
f 697 715 729
f 697 729 717
f 697 717 706
f 697 706 700
f 697 700 707
f 697 707 720
f 697 720 735
f 697 735 757
f 697 757 785
f 697 785 814
f 697 814 838
f 697 838 864
f 697 864 841
f 697 841 816
f 697 816 787
f 697 787 758
f 697 758 736
f 697 736 721
f 697 721 708
f 697 708 701
f 697 701 698
f 698 701 709
f 698 709 702
f 699 703 704
f 699 702 705
f 699 705 711
f 699 711 703
f 700 706 719
f 700 719 707
f 701 708 709
f 702 709 710
f 702 710 716
f 702 716 705
f 703 711 712
f 703 712 713
f 703 713 704
f 704 713 714
f 704 714 715
f 705 716 711
f 706 717 718
f 706 718 719
f 707 719 734
f 707 734 720
f 708 721 709
f 709 722 723
f 709 723 710
f 709 721 724
f 709 724 722
f 710 723 726
f 710 726 716
f 711 725 712
f 711 716 726
f 711 726 725
f 712 725 713
f 713 725 727
f 713 727 714
f 714 727 728
f 714 728 747
f 714 747 748
f 714 748 729
f 714 729 715
f 717 730 718
f 717 729 748
f 717 748 730
f 718 730 731
f 718 731 732
f 718 732 753
f 718 753 733
f 718 733 734
f 718 734 719
f 720 734 755
f 720 755 756
f 720 756 735
f 721 736 737
f 721 737 724
f 722 738 739
f 722 739 723
f 722 724 738
f 723 739 726
f 724 740 738
f 724 737 741
f 724 741 740
f 725 742 727
f 725 726 743
f 725 743 742
f 726 739 744
f 726 744 743
f 727 742 745
f 727 745 768
f 727 768 746
f 727 746 728
f 728 746 769
f 728 769 747
f 730 748 731
f 731 749 750
f 731 750 732
f 731 748 747
f 731 747 751
f 731 751 749
f 732 750 752
f 732 752 753
f 733 753 754
f 733 754 734
f 734 754 755
f 735 756 784
f 735 784 757
f 736 758 786
f 736 786 815
f 736 815 840
f 736 840 867
f 736 867 847
f 736 847 821
f 736 821 791
f 736 791 761
f 736 761 741
f 736 741 737
f 738 740 759
f 738 759 744
f 738 744 739
f 740 741 760
f 740 760 759
f 741 761 760
f 742 762 745
f 742 743 762
f 743 744 763
f 743 763 764
f 743 764 793
f 743 793 762
f 744 759 765
f 744 765 766
f 744 766 763
f 745 762 767
f 745 767 768
f 746 768 773
f 746 773 769
f 747 769 751
f 749 751 773
f 749 773 770
f 749 770 771
f 749 771 772
f 749 772 750
f 750 772 752
f 751 769 773
f 752 774 753
f 752 772 801
f 752 801 775
f 752 775 776
f 752 776 777
f 752 777 778
f 752 778 779
f 752 779 774
f 753 774 779
f 753 779 780
f 753 780 754
f 754 780 755
f 755 780 779
f 755 779 781
f 755 781 782
f 755 782 783
f 755 783 756
f 756 783 784
f 757 784 785
f 758 787 788
f 758 788 786
f 759 760 789
f 759 789 765
f 760 761 790
f 760 790 789
f 761 791 792
f 761 792 790
f 762 793 767
f 763 793 764
f 763 766 794
f 763 794 795
f 763 795 793
f 765 796 794
f 765 794 766
f 765 789 796
f 767 793 797
f 767 797 768
f 768 797 802
f 768 802 773
f 770 798 799
f 770 799 771
f 770 773 798
f 771 799 800
f 771 800 801
f 771 801 772
f 773 802 803
f 773 803 798
f 775 801 776
f 776 804 806
f 776 806 777
f 776 801 805
f 776 805 804
f 777 806 807
f 777 807 778
f 778 807 808
f 778 808 779
f 779 808 809
f 779 809 781
f 781 809 782
f 782 809 810
f 782 810 811
f 782 811 812
f 782 812 784
f 782 784 783
f 784 812 785
f 785 812 813
f 785 813 814
f 786 788 817
f 786 817 843
f 786 843 842
f 786 842 864
f 786 864 838
f 786 838 865
f 786 865 892
f 786 892 924
f 786 924 947
f 786 947 958
f 786 958 960
f 786 960 959
f 786 959 948
f 786 948 925
f 786 925 893
f 786 893 866
f 786 866 839
f 786 839 815
f 787 816 817
f 787 817 788
f 789 790 792
f 789 792 818
f 789 818 819
f 789 819 820
f 789 820 796
f 791 821 792
f 792 822 844
f 792 844 818
f 792 821 822
f 793 795 824
f 793 824 823
f 793 823 797
f 794 796 820
f 794 820 795
f 795 820 819
f 795 819 824
f 797 823 850
f 797 850 825
f 797 825 828
f 797 828 802
f 798 803 826
f 798 826 799
f 799 826 827
f 799 827 805
f 799 805 800
f 800 805 801
f 802 828 829
f 802 829 826
f 802 826 803
f 804 830 806
f 804 805 831
f 804 831 858
f 804 858 832
f 804 832 830
f 805 827 833
f 805 833 831
f 806 830 807
f 807 830 832
f 807 832 834
f 807 834 835
f 807 835 810
f 807 810 808
f 808 810 809
f 810 835 836
f 810 836 862
f 810 862 861
f 810 861 885
f 810 885 884
f 810 884 883
f 810 883 913
f 810 913 920
f 810 920 921
f 810 921 891
f 810 891 865
f 810 865 838
f 810 838 814
f 810 814 813
f 810 813 837
f 810 837 812
f 810 812 811
f 812 837 813
f 815 839 840
f 816 841 842
f 816 842 843
f 816 843 817
f 818 844 819
f 819 845 846
f 819 846 824
f 819 844 845
f 821 847 848
f 821 848 822
f 822 848 849
f 822 849 844
f 823 824 850
f 824 846 850
f 825 850 851
f 825 851 852
f 825 852 853
f 825 853 828
f 826 829 833
f 826 833 827
f 828 853 854
f 828 854 855
f 828 855 856
f 828 856 829
f 829 856 881
f 829 881 857
f 829 857 831
f 829 831 833
f 831 857 858
f 832 858 859
f 832 859 834
f 834 860 885
f 834 885 861
f 834 861 862
f 834 862 835
f 834 859 858
f 834 858 863
f 834 863 860
f 835 862 836
f 839 866 868
f 839 868 840
f 840 868 867
f 841 864 842
f 844 849 845
f 845 869 897
f 845 897 870
f 845 870 871
f 845 871 850
f 845 850 846
f 845 849 869
f 847 867 872
f 847 872 848
f 848 872 873
f 848 873 849
f 849 873 869
f 850 871 874
f 850 874 851
f 851 874 875
f 851 875 876
f 851 876 852
f 852 876 853
f 853 877 906
f 853 906 878
f 853 878 855
f 853 855 854
f 853 876 877
f 855 878 879
f 855 879 880
f 855 880 881
f 855 881 856
f 857 882 863
f 857 863 858
f 857 881 882
f 860 883 884
f 860 884 885
f 860 863 886
f 860 886 887
f 860 887 888
f 860 888 889
f 860 889 883
f 863 882 912
f 863 912 890
f 863 890 886
f 865 891 923
f 865 923 892
f 866 893 894
f 866 894 868
f 867 868 872
f 868 894 895
f 868 895 872
f 869 896 897
f 869 873 896
f 870 897 871
f 871 897 874
f 872 895 873
f 873 895 898
f 873 898 899
f 873 899 896
f 874 900 901
f 874 901 875
f 874 897 900
f 875 901 876
f 876 901 902
f 876 902 903
f 876 903 877
f 877 904 905
f 877 905 906
f 877 903 929
f 877 929 904
f 878 906 907
f 878 907 908
f 878 908 909
f 878 909 879
f 879 909 880
f 880 909 910
f 880 910 882
f 880 882 881
f 882 910 939
f 882 939 911
f 882 911 914
f 882 914 912
f 883 889 913
f 886 890 887
f 887 890 888
f 888 890 914
f 888 914 915
f 888 915 889
f 889 915 916
f 889 916 917
f 889 917 918
f 889 918 919
f 889 919 920
f 889 920 913
f 890 912 914
f 891 921 922
f 891 922 923
f 892 923 946
f 892 946 924
f 893 925 894
f 894 925 926
f 894 926 927
f 894 927 898
f 894 898 895
f 896 899 898
f 896 898 897
f 897 898 900
f 898 927 928
f 898 928 901
f 898 901 900
f 901 928 930
f 901 930 902
f 902 929 903
f 902 930 931
f 902 931 929
f 904 932 933
f 904 933 905
f 904 929 931
f 904 931 949
f 904 949 959
f 904 959 960
f 904 960 952
f 904 952 932
f 905 933 906
f 906 933 934
f 906 934 935
f 906 935 907
f 907 935 936
f 907 936 908
f 908 936 937
f 908 937 909
f 909 937 940
f 909 940 938
f 909 938 910
f 910 938 940
f 910 940 939
f 911 939 915
f 911 915 914
f 915 939 940
f 915 940 916
f 916 941 917
f 916 940 941
f 917 941 942
f 917 942 957
f 917 957 943
f 917 943 944
f 917 944 918
f 918 944 945
f 918 945 919
f 919 945 921
f 919 921 920
f 921 945 923
f 921 923 922
f 923 945 944
f 923 944 946
f 924 946 957
f 924 957 947
f 925 948 926
f 926 948 959
f 926 959 949
f 926 949 931
f 926 931 950
f 926 950 928
f 926 928 927
f 928 950 951
f 928 951 930
f 930 951 950
f 930 950 931
f 932 952 934
f 932 934 933
f 934 952 953
f 934 953 957
f 934 957 954
f 934 954 955
f 934 955 935
f 935 955 956
f 935 956 940
f 935 940 936
f 936 940 937
f 940 956 955
f 940 955 941
f 941 955 954
f 941 954 942
f 942 954 957
f 943 946 944
f 943 957 946
f 947 957 953
f 947 953 958
f 952 960 958
f 952 958 953
f 961 962 968
f 961 968 978
f 961 978 993
f 961 993 984
f 961 984 972
f 961 972 963
f 961 963 964
f 961 964 965
f 961 965 966
f 961 966 967
f 961 967 962
f 962 967 976
f 962 976 989
f 962 989 988
f 962 988 1003
f 962 1003 1020
f 962 1020 1046
f 962 1046 1074
f 962 1074 1101
f 962 1101 1127
f 962 1127 1105
f 962 1105 1080
f 962 1080 1051
f 962 1051 1024
f 962 1024 1005
f 962 1005 990
f 962 990 977
f 962 977 968
f 963 969 970
f 963 970 971
f 963 971 964
f 963 972 969
f 964 971 965
f 965 971 973
f 965 973 974
f 965 974 966
f 966 974 975
f 966 975 976
f 966 976 967
f 968 977 991
f 968 991 978
f 969 979 980
f 969 980 971
f 969 971 970
f 969 972 984
f 969 984 981
f 969 981 995
f 969 995 979
f 971 980 982
f 971 982 983
f 971 983 973
f 973 983 985
f 973 985 974
f 974 985 986
f 974 986 975
f 975 986 987
f 975 987 988
f 975 988 989
f 975 989 976
f 977 990 1004
f 977 1004 991
f 978 992 993
f 978 991 992
f 979 994 996
f 979 996 980
f 979 995 1010
f 979 1010 994
f 980 996 982
f 981 984 993
f 981 993 997
f 981 997 998
f 981 998 995
f 982 996 999
f 982 999 1000
f 982 1000 983
f 983 1000 1001
f 983 1001 986
f 983 986 985
f 986 1001 987
f 987 1002 1018
f 987 1018 1040
f 987 1040 1043
f 987 1043 1068
f 987 1068 1097
f 987 1097 1098
f 987 1098 1071
f 987 1071 1044
f 987 1044 1020
f 987 1020 1003
f 987 1003 988
f 987 1001 1002
f 990 1005 1025
f 990 1025 1022
f 990 1022 1004
f 991 1004 1007
f 991 1007 992
f 992 1006 998
f 992 998 997
f 992 997 993
f 992 1007 1006
f 994 1008 1009
f 994 1009 996
f 994 1010 1030
f 994 1030 1008
f 995 998 1013
f 995 1013 1011
f 995 1011 1010
f 996 1009 999
f 998 1006 1012
f 998 1012 1013
f 999 1009 1014
f 999 1014 1015
f 999 1015 1000
f 1000 1016 1019
f 1000 1019 1017
f 1000 1017 1001
f 1000 1015 1016
f 1001 1017 1002
f 1002 1017 1019
f 1002 1019 1018
f 1004 1021 1007
f 1004 1022 1023
f 1004 1023 1021
f 1005 1024 1052
f 1005 1052 1025
f 1006 1007 1026
f 1006 1026 1027
f 1006 1027 1012
f 1007 1021 1028
f 1007 1028 1026
f 1008 1029 1038
f 1008 1038 1014
f 1008 1014 1009
f 1008 1030 1056
f 1008 1056 1029
f 1010 1011 1013
f 1010 1013 1031
f 1010 1031 1032
f 1010 1032 1033
f 1010 1033 1030
f 1012 1027 1034
f 1012 1034 1035
f 1012 1035 1013
f 1013 1036 1037
f 1013 1037 1032
f 1013 1032 1031
f 1013 1035 1036
f 1014 1038 1066
f 1014 1066 1039
f 1014 1039 1015
f 1015 1039 1016
f 1016 1039 1019
f 1018 1019 1040
f 1019 1041 1069
f 1019 1069 1042
f 1019 1042 1043
f 1019 1043 1040
f 1019 1039 1066
f 1019 1066 1041
f 1020 1044 1045
f 1020 1045 1046
f 1021 1023 1028
f 1022 1025 1047
f 1022 1047 1048
f 1022 1048 1023
f 1023 1048 1049
f 1023 1049 1050
f 1023 1050 1028
f 1024 1051 1052
f 1025 1052 1047
f 1026 1028 1053
f 1026 1053 1027
f 1027 1053 1034
f 1028 1050 1053
f 1029 1054 1055
f 1029 1055 1038
f 1029 1056 1085
f 1029 1085 1054
f 1030 1033 1032
f 1030 1032 1057
f 1030 1057 1086
f 1030 1086 1056
f 1032 1037 1036
f 1032 1036 1058
f 1032 1058 1059
f 1032 1059 1060
f 1032 1060 1057
f 1034 1053 1061
f 1034 1061 1092
f 1034 1092 1062
f 1034 1062 1035
f 1035 1058 1036
f 1035 1062 1063
f 1035 1063 1058
f 1038 1064 1065
f 1038 1065 1066
f 1038 1055 1084
f 1038 1084 1064
f 1041 1067 1068
f 1041 1068 1069
f 1041 1066 1070
f 1041 1070 1067
f 1042 1069 1068
f 1042 1068 1043
f 1044 1071 1099
f 1044 1099 1126
f 1044 1126 1146
f 1044 1146 1166
f 1044 1166 1170
f 1044 1170 1188
f 1044 1188 1192
f 1044 1192 1198
f 1044 1198 1182
f 1044 1182 1167
f 1044 1167 1149
f 1044 1149 1129
f 1044 1129 1105
f 1044 1105 1127
f 1044 1127 1100
f 1044 1100 1073
f 1044 1073 1072
f 1044 1072 1045
f 1045 1072 1046
f 1046 1072 1073
f 1046 1073 1074
f 1047 1052 1048
f 1048 1052 1075
f 1048 1075 1076
f 1048 1076 1049
f 1049 1077 1061
f 1049 1061 1050
f 1049 1076 1078
f 1049 1078 1079
f 1049 1079 1077
f 1050 1061 1053
f 1051 1080 1081
f 1051 1081 1052
f 1052 1081 1082
f 1052 1082 1075
f 1054 1083 1108
f 1054 1108 1084
f 1054 1084 1055
f 1054 1085 1109
f 1054 1109 1083
f 1056 1086 1087
f 1056 1087 1088
f 1056 1088 1085
f 1057 1060 1090
f 1057 1090 1120
f 1057 1120 1115
f 1057 1115 1086
f 1058 1063 1089
f 1058 1089 1059
f 1059 1089 1060
f 1060 1089 1090
f 1061 1077 1091
f 1061 1091 1092
f 1062 1092 1091
f 1062 1091 1093
f 1062 1093 1063
f 1063 1093 1094
f 1063 1094 1089
f 1064 1084 1110
f 1064 1110 1095
f 1064 1095 1065
f 1065 1095 1070
f 1065 1070 1066
f 1067 1070 1095
f 1067 1095 1096
f 1067 1096 1097
f 1067 1097 1068
f 1071 1098 1099
f 1073 1100 1074
f 1074 1100 1101
f 1075 1082 1076
f 1076 1082 1081
f 1076 1081 1080
f 1076 1080 1105
f 1076 1105 1129
f 1076 1129 1150
f 1076 1150 1169
f 1076 1169 1184
f 1076 1184 1197
f 1076 1197 1179
f 1076 1179 1161
f 1076 1161 1148
f 1076 1148 1128
f 1076 1128 1104
f 1076 1104 1079
f 1076 1079 1078
f 1077 1102 1103
f 1077 1103 1091
f 1077 1079 1104
f 1077 1104 1102
f 1083 1106 1107
f 1083 1107 1108
f 1083 1109 1131
f 1083 1131 1106
f 1084 1108 1110
f 1085 1088 1087
f 1085 1087 1111
f 1085 1111 1112
f 1085 1112 1113
f 1085 1113 1114
f 1085 1114 1109
f 1086 1115 1116
f 1086 1116 1087
f 1087 1116 1136
f 1087 1136 1111
f 1089 1094 1117
f 1089 1117 1118
f 1089 1118 1119
f 1089 1119 1090
f 1090 1119 1140
f 1090 1140 1120
f 1091 1103 1121
f 1091 1121 1094
f 1091 1094 1093
f 1094 1121 1103
f 1094 1103 1102
f 1094 1102 1117
f 1095 1122 1096
f 1095 1110 1123
f 1095 1123 1133
f 1095 1133 1122
f 1096 1124 1098
f 1096 1098 1097
f 1096 1122 1125
f 1096 1125 1124
f 1098 1124 1099
f 1099 1124 1126
f 1100 1127 1101
f 1102 1104 1117
f 1104 1128 1119
f 1104 1119 1117
f 1106 1130 1107
f 1106 1131 1154
f 1106 1154 1171
f 1106 1171 1188
f 1106 1188 1170
f 1106 1170 1151
f 1106 1151 1130
f 1107 1130 1132
f 1107 1132 1133
f 1107 1133 1108
f 1108 1133 1110
f 1109 1114 1113
f 1109 1113 1134
f 1109 1134 1135
f 1109 1135 1131
f 1110 1133 1123
f 1111 1136 1137
f 1111 1137 1112
f 1112 1137 1113
f 1113 1137 1138
f 1113 1138 1139
f 1113 1139 1134
f 1115 1120 1116
f 1116 1120 1136
f 1117 1119 1118
f 1119 1128 1148
f 1119 1148 1140
f 1120 1140 1141
f 1120 1141 1142
f 1120 1142 1143
f 1120 1143 1144
f 1120 1144 1136
f 1122 1145 1125
f 1122 1133 1145
f 1124 1146 1126
f 1124 1125 1145
f 1124 1145 1147
f 1124 1147 1166
f 1124 1166 1146
f 1129 1149 1150
f 1130 1151 1152
f 1130 1152 1153
f 1130 1153 1132
f 1131 1135 1157
f 1131 1157 1154
f 1132 1153 1133
f 1133 1153 1147
f 1133 1147 1145
f 1134 1139 1155
f 1134 1155 1156
f 1134 1156 1157
f 1134 1157 1135
f 1136 1138 1137
f 1136 1144 1159
f 1136 1159 1138
f 1138 1158 1139
f 1138 1159 1158
f 1139 1158 1160
f 1139 1160 1155
f 1140 1148 1161
f 1140 1161 1142
f 1140 1142 1141
f 1142 1162 1143
f 1142 1161 1162
f 1143 1162 1163
f 1143 1163 1164
f 1143 1164 1144
f 1144 1164 1181
f 1144 1181 1165
f 1144 1165 1159
f 1147 1153 1152
f 1147 1152 1151
f 1147 1151 1170
f 1147 1170 1166
f 1149 1167 1168
f 1149 1168 1150
f 1150 1168 1169
f 1154 1157 1156
f 1154 1156 1171
f 1155 1160 1172
f 1155 1172 1173
f 1155 1173 1156
f 1156 1173 1191
f 1156 1191 1174
f 1156 1174 1171
f 1158 1175 1160
f 1158 1159 1176
f 1158 1176 1177
f 1158 1177 1175
f 1159 1165 1176
f 1160 1175 1178
f 1160 1178 1172
f 1161 1179 1180
f 1161 1180 1162
f 1162 1181 1163
f 1162 1180 1181
f 1163 1181 1164
f 1165 1181 1176
f 1167 1182 1185
f 1167 1185 1168
f 1168 1183 1184
f 1168 1184 1169
f 1168 1185 1186
f 1168 1186 1187
f 1168 1187 1183
f 1171 1174 1192
f 1171 1192 1188
f 1172 1178 1189
f 1172 1189 1190
f 1172 1190 1173
f 1173 1190 1191
f 1174 1191 1198
f 1174 1198 1192
f 1175 1177 1178
f 1176 1181 1177
f 1177 1181 1193
f 1177 1193 1194
f 1177 1194 1178
f 1178 1194 1195
f 1178 1195 1196
f 1178 1196 1189
f 1179 1197 1194
f 1179 1194 1180
f 1180 1194 1193
f 1180 1193 1181
f 1182 1198 1191
f 1182 1191 1199
f 1182 1199 1185
f 1183 1187 1184
f 1184 1187 1194
f 1184 1194 1197
f 1185 1199 1186
f 1186 1199 1187
f 1187 1199 1195
f 1187 1195 1194
f 1189 1196 1190
f 1190 1196 1195
f 1190 1195 1199
f 1190 1199 1191

